<svg width="25" height="24" viewBox="0 0 25 24" fill="none" xmlns="http://www.w3.org/2000/svg">
<g clip-path="url(#clip0_5_1140)">
<path fill-rule="evenodd" clip-rule="evenodd" d="M12.58 0C5.9526 0 0.580017 5.37258 0.580017 12C0.580017 18.6274 5.9526 24 12.58 24C19.2074 24 24.58 18.6274 24.58 12C24.58 5.37258 19.2074 0 12.58 0ZM13.7347 11.9991V20H10.6307V11.9994H9.08002V9.24221H10.6307V7.58682C10.6307 5.33752 11.5064 4 13.9942 4H16.0653V6.75748H14.7707C13.8023 6.75748 13.7382 7.1428 13.7382 7.86191L13.7347 9.2419H16.08L15.8056 11.9991H13.7347Z" fill="#BA8D5B"/>
</g>
<defs>
<clipPath id="clip0_5_1140">
<rect width="24" height="24" fill="white" transform="translate(0.580017)"/>
</clipPath>
</defs>
</svg>
