<svg width="209" height="208" viewBox="0 0 209 208" fill="none" xmlns="http://www.w3.org/2000/svg">
<path opacity="0.1" d="M96.5302 196.823L16.0135 150.334C14.8487 149.648 14.9943 148.462 16.3463 147.693L68.0134 117.866C69.3654 117.076 71.4246 116.992 72.5894 117.678L153.106 164.166C154.271 164.832 154.126 166.018 152.774 166.808L101.106 196.636C99.7542 197.426 97.6947 197.509 96.5302 196.823Z" fill="#020230"/>
<path d="M174.495 75.3346L94.3108 29.0338C93.812 28.7426 93.2298 28.6386 92.668 28.805L91.1908 29.325L91.7108 29.4498C91.4823 29.7202 91.316 30.0322 91.212 30.365L73.0743 89.2495C72.6167 90.7055 73.2822 92.4735 74.551 93.2015L154.735 139.503C154.922 139.607 155.11 139.689 155.318 139.753L155.11 140.189L156.524 139.689C157.169 139.419 157.647 138.857 157.814 138.193L175.951 79.3073C176.409 77.8308 175.764 76.0628 174.495 75.3346Z" fill="url(#paint0_linear_1_6332)"/>
<path d="M151.856 141.704L151.877 141.746L72.6705 96.0067C71.5057 95.3417 69.4673 95.4244 68.1153 96.1942L16.9473 125.73L15.2417 125.086L15.7201 127.478C15.8241 127.894 16.0945 128.247 16.4897 128.434L96.4245 174.59C97.589 175.255 99.6272 175.172 100.979 174.402L152.293 144.783C152.917 144.408 153.291 143.972 153.375 143.514L153.853 141.184L151.856 141.704Z" fill="url(#paint1_linear_1_6332)"/>
<path d="M96.5302 172.485L16.0135 125.997C14.8487 125.311 14.9943 124.125 16.3463 123.355L68.0134 93.5276C69.3654 92.7374 71.4246 92.6546 72.5894 93.3409L153.106 139.829C154.271 140.495 154.126 141.68 152.774 142.471L101.106 172.297C99.7542 173.067 97.6947 173.151 96.5302 172.485Z" fill="url(#paint2_linear_1_6332)"/>
<path d="M152.782 141.826L101.115 171.653C99.7628 172.444 97.704 172.527 96.5388 171.841L16.0224 125.373C15.6896 125.207 15.4192 124.895 15.2944 124.541C15.128 125.082 15.3568 125.623 16.0224 125.997L96.5388 172.485C97.704 173.172 99.7628 173.068 101.115 172.298L152.782 142.45C153.677 141.93 154.03 141.244 153.843 140.641C153.718 141.077 153.386 141.493 152.782 141.826Z" fill="white"/>
<g opacity="0.4">
<path d="M54.4142 118.449L51.6894 116.889C51.4606 116.765 51.5022 116.536 51.7518 116.39L54.955 114.539C55.2254 114.393 55.5374 114.373 55.8078 114.497L58.5326 116.057C58.7406 116.182 58.7198 116.411 58.4702 116.557L55.267 118.408C54.9966 118.574 54.6846 118.574 54.4142 118.449Z" fill="#06033E"/>
<path d="M58.6161 120.886L55.8913 119.326C55.6833 119.201 55.7041 118.973 55.9537 118.827L59.1569 116.976C59.4273 116.83 59.7393 116.809 60.0097 116.934L62.7345 118.494C62.9425 118.619 62.9217 118.848 62.6721 118.993L59.4689 120.845C59.1985 120.99 58.8865 121.011 58.6161 120.886Z" fill="#06033E"/>
<path d="M62.8114 123.294L60.0866 121.734C59.8786 121.61 59.8994 121.381 60.149 121.235L63.3522 119.384C63.6226 119.238 63.9346 119.218 64.205 119.342L66.9298 120.902C67.1378 121.027 67.117 121.256 66.8674 121.402L63.6642 123.253C63.3938 123.419 63.0818 123.419 62.8114 123.294Z" fill="#06033E"/>
<path d="M68.6171 121.297L65.8923 119.737C65.6843 119.612 65.7051 119.383 65.9547 119.238L68.6587 117.678C68.9291 117.532 69.2411 117.511 69.5115 117.636L72.2363 119.196C72.4443 119.321 72.4235 119.55 72.1739 119.695L69.4699 121.255C69.1995 121.401 68.8875 121.422 68.6171 121.297Z" fill="#06033E"/>
<path d="M72.8276 123.733L70.1028 122.152C69.8948 122.027 69.9156 121.799 70.1652 121.653L72.8692 120.093C73.1396 119.947 73.4516 119.927 73.722 120.051L76.4468 121.611C76.6548 121.736 76.634 121.965 76.3844 122.111L73.6804 123.671C73.41 123.837 73.098 123.858 72.8276 123.733Z" fill="#06033E"/>
<path d="M77.0078 126.142L74.2829 124.582C74.0749 124.458 74.0957 124.228 74.3453 124.083L77.0496 122.523C77.3198 122.378 77.6318 122.356 77.9021 122.482L80.6273 124.042C80.8353 124.166 80.8141 124.395 80.5643 124.54L77.8603 126.1C77.6113 126.267 77.2993 126.267 77.0078 126.142Z" fill="#06033E"/>
<path d="M81.2033 128.58L78.478 127.02C78.27 126.895 78.2913 126.666 78.541 126.52L81.2238 124.96C81.494 124.815 81.806 124.794 82.077 124.919L84.8015 126.479C85.0095 126.604 84.989 126.832 84.7393 126.978L82.0353 128.538C81.806 128.684 81.4735 128.704 81.2033 128.58Z" fill="#06033E"/>
<path d="M85.3992 130.996L82.6739 129.435C82.4659 129.31 82.4872 129.082 82.7362 128.936L85.4402 127.376C85.7112 127.23 86.0232 127.21 86.2934 127.334L89.0179 128.894C89.2259 129.02 89.2054 129.248 88.9557 129.394L86.2517 130.954C85.9814 131.12 85.6694 131.12 85.3992 130.996Z" fill="#06033E"/>
<path d="M89.6091 133.425L86.8839 131.865C86.6759 131.741 86.6971 131.512 86.9461 131.366L89.6501 129.806C89.9211 129.661 90.2331 129.64 90.5034 129.765L93.2279 131.325C93.4359 131.449 93.4154 131.678 93.1656 131.824L90.4821 133.384C90.1914 133.529 89.8794 133.55 89.6091 133.425Z" fill="#06033E"/>
<path d="M93.8044 135.841L91.0799 134.281C90.8719 134.155 90.8924 133.927 91.1422 133.781L93.8462 132.221C94.1164 132.075 94.4284 132.055 94.6994 132.179L97.4239 133.739C97.6319 133.865 97.6114 134.093 97.3617 134.239L94.6577 135.799C94.3874 135.965 94.0754 135.965 93.8044 135.841Z" fill="#06033E"/>
<path d="M98.0153 138.271L95.29 136.711C95.082 136.587 95.1033 136.357 95.3531 136.212L98.057 134.651C98.3273 134.507 98.6393 134.485 98.9095 134.611L101.634 136.171C101.842 136.295 101.822 136.524 101.572 136.669L98.8678 138.229C98.5976 138.375 98.2856 138.396 98.0153 138.271Z" fill="#06033E"/>
<path d="M102.196 140.686L99.4703 139.126C99.2623 139.001 99.2835 138.773 99.5325 138.627L102.237 137.067C102.508 136.921 102.82 136.901 103.09 137.025L105.814 138.585C106.022 138.71 106.002 138.939 105.752 139.085L103.048 140.645C102.798 140.811 102.466 140.811 102.196 140.686Z" fill="#06033E"/>
<path d="M106.39 143.116L103.666 141.556C103.458 141.431 103.478 141.202 103.728 141.057L106.432 139.497C106.702 139.351 107.014 139.33 107.285 139.455L110.01 141.015C110.218 141.14 110.197 141.369 109.947 141.514L107.243 143.074C106.973 143.22 106.661 143.241 106.39 143.116Z" fill="#06033E"/>
<path d="M74.8009 120.158L72.0969 118.577C71.8889 118.452 71.9097 118.224 72.1593 118.078L74.8426 116.518C75.113 116.372 75.4249 116.352 75.6953 116.476L78.4199 118.036C78.6279 118.161 78.6074 118.39 78.3577 118.536L75.6746 120.096C75.4042 120.262 75.0713 120.283 74.8009 120.158Z" fill="#06033E"/>
<path d="M70.5375 117.699L67.8127 116.117C67.6047 115.993 67.6255 115.764 67.8751 115.619L70.5791 114.059C70.8495 113.913 71.1615 113.892 71.4319 114.017L74.1567 115.577C74.3647 115.701 74.3439 115.931 74.0943 116.076L71.3903 117.636C71.1407 117.803 70.8287 117.823 70.5375 117.699Z" fill="#06033E"/>
<path d="M66.2713 115.225L60.4265 111.856C60.2185 111.731 60.2393 111.502 60.4889 111.356L63.1929 109.796C63.4633 109.651 63.7753 109.63 64.0457 109.755L69.8905 113.124C70.0985 113.249 70.0777 113.478 69.8281 113.624L67.1241 115.184C66.8537 115.35 66.5417 115.35 66.2713 115.225Z" fill="#06033E"/>
<path d="M69.2607 112.231L64.5183 109.485C64.3103 109.36 64.3311 109.131 64.5807 108.985L67.2847 107.425C67.5551 107.28 67.8671 107.259 68.1375 107.384L72.8799 110.129C73.0879 110.255 73.0671 110.483 72.8175 110.629L70.1135 112.189C69.8431 112.335 69.5311 112.355 69.2607 112.231Z" fill="#06033E"/>
<path d="M79.0021 122.568L76.2776 121.008C76.0696 120.883 76.0904 120.654 76.34 120.508L79.0438 118.948C79.3141 118.803 79.6261 118.782 79.8971 118.907L82.6216 120.467C82.8296 120.592 82.8091 120.82 82.5593 120.966L79.8553 122.526C79.5851 122.692 79.2731 122.692 79.0021 122.568Z" fill="#06033E"/>
<path d="M83.1975 125.005L80.473 123.445C80.265 123.32 80.2855 123.092 80.5352 122.946L83.2392 121.386C83.5095 121.24 83.8215 121.22 84.0917 121.344L86.817 122.904C87.025 123.029 87.0037 123.258 86.7547 123.404L84.0507 124.964C83.7797 125.109 83.4677 125.13 83.1975 125.005Z" fill="#06033E"/>
<path d="M87.4079 127.414L84.6834 125.854C84.4754 125.729 84.4959 125.501 84.7457 125.355L87.4292 123.815C87.6994 123.67 88.0114 123.649 88.2817 123.774L91.0062 125.334C91.2142 125.459 91.1937 125.687 90.9439 125.833L88.2399 127.393C87.9902 127.539 87.6782 127.559 87.4079 127.414Z" fill="#06033E"/>
<path d="M91.6037 129.85L88.8792 128.29C88.6712 128.165 88.6917 127.937 88.9415 127.791L91.6455 126.231C91.9157 126.085 92.2277 126.065 92.498 126.189L95.2232 127.749C95.4312 127.874 95.41 128.103 95.1602 128.249L92.4562 129.809C92.1655 129.954 91.8535 129.975 91.6037 129.85Z" fill="#06033E"/>
<path d="M95.7839 132.281L93.0594 130.721C92.8514 130.595 92.8719 130.367 93.1217 130.221L95.8257 128.661C96.0959 128.515 96.4079 128.495 96.6789 128.619L99.4034 130.179C99.6114 130.305 99.5909 130.533 99.3412 130.679L96.6372 132.239C96.3874 132.385 96.0549 132.385 95.7839 132.281Z" fill="#06033E"/>
<path d="M99.9939 134.696L97.2694 133.136C97.0614 133.011 97.0819 132.782 97.3316 132.637L100.015 131.077C100.285 130.931 100.597 130.91 100.868 131.035L103.592 132.595C103.8 132.72 103.78 132.949 103.53 133.094L100.826 134.654C100.576 134.8 100.264 134.821 99.9939 134.696Z" fill="#06033E"/>
<path d="M104.189 137.126L101.465 135.566C101.257 135.441 101.277 135.212 101.527 135.066L104.231 133.506C104.501 133.361 104.813 133.34 105.083 133.465L107.787 135.046C107.995 135.17 107.975 135.4 107.725 135.545L105.021 137.105C104.771 137.23 104.459 137.25 104.189 137.126Z" fill="#06033E"/>
<path d="M108.384 139.541L105.66 137.981C105.452 137.856 105.472 137.628 105.722 137.482L108.426 135.922C108.696 135.776 109.008 135.756 109.279 135.88L112.004 137.44C112.212 137.565 112.191 137.794 111.941 137.94L109.258 139.5C108.967 139.645 108.655 139.666 108.384 139.541Z" fill="#06033E"/>
<path d="M112.595 141.972L109.87 140.412C109.662 140.286 109.683 140.058 109.933 139.912L112.637 138.352C112.907 138.206 113.219 138.186 113.49 138.31L116.194 139.87C116.402 139.996 116.381 140.224 116.131 140.37L113.427 141.93C113.178 142.076 112.866 142.076 112.595 141.972Z" fill="#06033E"/>
<path d="M120.038 146.281L114.11 142.849C113.902 142.724 113.923 142.495 114.172 142.35L116.876 140.79C117.147 140.644 117.459 140.623 117.729 140.748L123.657 144.18C123.865 144.305 123.844 144.534 123.595 144.679L120.912 146.239C120.641 146.385 120.308 146.406 120.038 146.281Z" fill="#06033E"/>
<path d="M128.208 141.559L123.195 138.668C122.987 138.543 123.008 138.315 123.257 138.169L125.961 136.609C126.232 136.463 126.544 136.443 126.814 136.567L131.827 139.459C132.035 139.583 132.014 139.812 131.764 139.957L129.081 141.517C128.811 141.663 128.499 141.684 128.208 141.559Z" fill="#06033E"/>
<path d="M86.3444 122.109L83.6191 120.549C83.4111 120.425 83.4324 120.196 83.6822 120.05L86.3862 118.49C86.6564 118.345 86.9684 118.324 87.2386 118.449L89.9631 120.009C90.1711 120.133 90.1507 120.362 89.9009 120.508L87.1969 122.068C86.9471 122.213 86.6351 122.234 86.3444 122.109Z" fill="#06033E"/>
<path d="M82.0608 119.613L79.3355 118.053C79.1275 117.928 79.1488 117.699 79.3978 117.554L82.1018 115.994C82.3728 115.848 82.6848 115.827 82.955 115.952L85.6795 117.512C85.8875 117.637 85.867 117.866 85.6173 118.011L82.9338 119.571C82.643 119.738 82.331 119.738 82.0608 119.613Z" fill="#06033E"/>
<path d="M77.7464 117.138L75.0217 115.578C74.8137 115.454 74.8345 115.224 75.0841 115.079L77.7882 113.519C78.0584 113.374 78.3704 113.352 78.6407 113.478L81.3659 115.038C81.5739 115.162 81.5527 115.391 81.3029 115.536L78.5989 117.096C78.3287 117.242 78.0167 117.263 77.7464 117.138Z" fill="#06033E"/>
<path d="M73.4482 114.642L70.7234 113.082C70.5154 112.957 70.5362 112.728 70.7858 112.583L73.4898 111.023C73.7602 110.877 74.0722 110.856 74.3426 110.981L77.0673 112.541C77.2753 112.666 77.2548 112.895 77.005 113.04L74.301 114.6C74.0306 114.767 73.7186 114.767 73.4482 114.642Z" fill="#06033E"/>
<path d="M90.5398 124.524L87.8145 122.964C87.6065 122.84 87.6278 122.611 87.8768 122.466L90.5603 120.906C90.8305 120.76 91.1425 120.739 91.4128 120.864L94.138 122.424C94.346 122.548 94.3248 122.778 94.0758 122.923L91.3718 124.483C91.1425 124.628 90.81 124.65 90.5398 124.524Z" fill="#06033E"/>
<path d="M94.7502 126.955L92.0257 125.395C91.8177 125.27 91.8382 125.042 92.088 124.896L94.792 123.336C95.0622 123.19 95.3742 123.17 95.6445 123.294L98.3697 124.854C98.5777 124.979 98.5565 125.208 98.3067 125.354L95.6027 126.914C95.3325 127.059 95.0205 127.08 94.7502 126.955Z" fill="#06033E"/>
<path d="M98.945 129.37L96.2205 127.81C96.0125 127.686 96.033 127.456 96.2828 127.311L98.9868 125.751C99.257 125.606 99.569 125.584 99.8401 125.71L102.565 127.27C102.773 127.394 102.752 127.623 102.502 127.768L99.7983 129.328C99.5281 129.474 99.216 129.495 98.945 129.37Z" fill="#06033E"/>
<path d="M103.141 131.8L100.416 130.24C100.208 130.115 100.229 129.887 100.479 129.741L103.161 128.181C103.432 128.035 103.744 128.015 104.015 128.139L106.739 129.699C106.947 129.824 106.927 130.053 106.677 130.199L103.973 131.759C103.723 131.904 103.411 131.925 103.141 131.8Z" fill="#06033E"/>
<path d="M107.351 134.216L104.626 132.656C104.418 132.531 104.439 132.302 104.688 132.157L107.392 130.597C107.663 130.451 107.975 130.43 108.245 130.555L110.97 132.136C111.178 132.261 111.157 132.49 110.907 132.635L108.224 134.195C107.933 134.32 107.621 134.341 107.351 134.216Z" fill="#06033E"/>
<path d="M111.531 136.645L108.807 135.085C108.599 134.961 108.619 134.732 108.869 134.587L111.573 133.027C111.843 132.881 112.155 132.86 112.426 132.985L115.151 134.545C115.359 134.669 115.338 134.899 115.088 135.044L112.384 136.604C112.135 136.749 111.823 136.771 111.531 136.645Z" fill="#06033E"/>
<path d="M115.727 139.062L113.001 137.502C112.793 137.377 112.815 137.149 113.064 137.003L115.768 135.464C116.039 135.318 116.351 135.297 116.621 135.422L119.345 136.982C119.553 137.107 119.533 137.336 119.283 137.481L116.579 139.041C116.309 139.187 115.997 139.187 115.727 139.062Z" fill="#06033E"/>
<path d="M119.937 141.499L117.212 139.939C117.004 139.814 117.025 139.585 117.275 139.439L119.979 137.879C120.249 137.734 120.561 137.713 120.831 137.838L123.556 139.398C123.764 139.523 123.743 139.751 123.494 139.897L120.79 141.457C120.519 141.603 120.207 141.623 119.937 141.499Z" fill="#06033E"/>
<path d="M124.133 143.907L121.407 142.347C121.199 142.222 121.221 141.993 121.47 141.847L124.174 140.287C124.445 140.142 124.757 140.121 125.027 140.246L127.751 141.806C127.959 141.931 127.939 142.159 127.689 142.305L124.985 143.865C124.715 144.031 124.403 144.031 124.133 143.907Z" fill="#06033E"/>
<path d="M84.1428 116.119L81.4183 114.559C81.2103 114.434 81.2308 114.205 81.4806 114.06L84.1845 112.5C84.4548 112.354 84.7668 112.333 85.0378 112.458L87.7623 114.018C87.9703 114.143 87.9498 114.372 87.7001 114.517L84.9961 116.056C84.7463 116.223 84.4138 116.244 84.1428 116.119Z" fill="#06033E"/>
<path d="M79.9621 113.704L77.2376 112.144C77.0296 112.019 77.0501 111.79 77.2999 111.644L80.0039 110.084C80.2741 109.939 80.5861 109.918 80.8564 110.043L83.5816 111.603C83.7896 111.728 83.7684 111.956 83.5186 112.102L80.8146 113.662C80.5656 113.808 80.2324 113.828 79.9621 113.704Z" fill="#06033E"/>
<path d="M75.7963 111.296L73.0715 109.736C72.8635 109.611 72.8843 109.383 73.1339 109.237L75.8379 107.677C76.1083 107.531 76.4203 107.511 76.6904 107.635L79.4157 109.195C79.6237 109.32 79.6024 109.549 79.3534 109.695L76.6491 111.255C76.3787 111.4 76.0667 111.421 75.7963 111.296Z" fill="#06033E"/>
<path d="M71.6161 108.881L68.8913 107.321C68.6833 107.195 68.7041 106.967 68.9537 106.821L71.6577 105.261C71.9281 105.115 72.2401 105.095 72.5105 105.22L75.2145 106.779C75.4225 106.905 75.4017 107.133 75.1521 107.279L72.4481 108.839C72.1985 108.985 71.8865 108.985 71.6161 108.881Z" fill="#06033E"/>
<path d="M75.8998 106.385L73.175 104.825C72.967 104.701 72.9878 104.472 73.2374 104.326L74.1318 103.806C74.4022 103.661 74.7142 103.64 74.9846 103.765L77.7092 105.325C77.9172 105.449 77.8967 105.678 77.6469 105.824L76.7527 106.344C76.503 106.51 76.1702 106.51 75.8998 106.385Z" fill="#06033E"/>
<path d="M81.3508 109.547L78.6263 107.987C78.4183 107.862 78.4388 107.633 78.6886 107.487L79.5623 106.967C79.8326 106.822 80.1446 106.801 80.4148 106.926L83.1401 108.486C83.3481 108.611 83.3268 108.839 83.0771 108.985L82.1828 109.505C81.9331 109.651 81.6211 109.671 81.3508 109.547Z" fill="#06033E"/>
<path d="M85.5168 111.94L82.7923 110.38C82.5843 110.255 82.6048 110.026 82.8546 109.88L83.7488 109.36C84.0198 109.215 84.3318 109.194 84.6021 109.319L87.3266 110.879C87.5346 111.004 87.5141 111.232 87.2643 111.378L86.3701 111.898C86.1203 112.064 85.7878 112.064 85.5168 111.94Z" fill="#06033E"/>
<path d="M89.6687 114.355L86.9434 112.795C86.7354 112.67 86.7567 112.442 87.0057 112.296L87.9007 111.776C88.1709 111.63 88.4829 111.61 88.7532 111.734L91.4777 113.294C91.6857 113.419 91.6652 113.648 91.4154 113.794L90.5212 114.314C90.2714 114.459 89.9389 114.48 89.6687 114.355Z" fill="#06033E"/>
<path d="M93.8337 116.741L91.1092 115.181C90.9012 115.056 90.9217 114.827 91.1715 114.682L92.0657 114.162C92.3367 114.016 92.6487 113.995 92.919 114.12L95.6435 115.701C95.8515 115.826 95.831 116.054 95.5812 116.2L94.687 116.72C94.4372 116.845 94.1047 116.866 93.8337 116.741Z" fill="#06033E"/>
<path d="M117.056 130.162L114.332 128.602C114.124 128.477 114.144 128.248 114.394 128.103L115.288 127.583C115.559 127.437 115.871 127.416 116.142 127.541L118.866 129.101C119.074 129.226 119.054 129.455 118.804 129.6L117.91 130.12C117.639 130.266 117.327 130.287 117.056 130.162Z" fill="#06033E"/>
<path d="M121.222 132.555L118.498 130.995C118.29 130.87 118.31 130.641 118.56 130.496L119.454 129.976C119.725 129.83 120.037 129.809 120.307 129.934L123.032 131.494C123.24 131.619 123.219 131.848 122.97 131.993L122.075 132.513C121.805 132.659 121.493 132.68 121.222 132.555Z" fill="#06033E"/>
<path d="M125.388 134.962L122.663 133.381C122.455 133.256 122.476 133.028 122.726 132.882L123.62 132.362C123.891 132.216 124.203 132.196 124.473 132.32L127.198 133.88C127.406 134.005 127.385 134.234 127.135 134.38L126.241 134.9C125.971 135.066 125.659 135.066 125.388 134.962Z" fill="#06033E"/>
<path d="M129.539 137.356L126.815 135.796C126.607 135.672 126.627 135.443 126.877 135.297L127.771 134.777C128.042 134.632 128.354 134.611 128.625 134.736L131.349 136.296C131.557 136.42 131.537 136.649 131.287 136.795L130.393 137.315C130.122 137.46 129.81 137.481 129.539 137.356Z" fill="#06033E"/>
<path d="M88.3386 118.533L85.6141 116.952C85.4061 116.827 85.4266 116.598 85.6764 116.453L88.3599 114.893C88.6301 114.747 88.9421 114.726 89.2123 114.851L91.9368 116.411C92.1448 116.536 92.1244 116.765 91.8746 116.91L89.1706 118.47C88.9208 118.637 88.6088 118.658 88.3386 118.533Z" fill="#06033E"/>
<path d="M92.5344 120.942L89.8099 119.382C89.6019 119.258 89.6224 119.029 89.8722 118.883L92.5761 117.323C92.8464 117.178 93.1584 117.157 93.4286 117.282L96.1539 118.842C96.3619 118.966 96.3406 119.195 96.0909 119.341L93.3869 120.901C93.1166 121.067 92.8046 121.067 92.5344 120.942Z" fill="#06033E"/>
<path d="M96.7444 123.38L94.0199 121.82C93.8119 121.695 93.8324 121.466 94.0821 121.32L96.7861 119.76C97.0564 119.615 97.3684 119.594 97.6386 119.719L100.364 121.279C100.572 121.404 100.551 121.632 100.301 121.778L97.6181 123.338C97.3266 123.484 97.0146 123.504 96.7444 123.38Z" fill="#06033E"/>
<path d="M100.925 125.816L98.2005 124.235C97.9925 124.11 98.013 123.882 98.2628 123.736L100.967 122.176C101.237 122.03 101.549 122.01 101.819 122.134L104.545 123.715C104.753 123.84 104.731 124.069 104.482 124.214L101.778 125.774C101.529 125.92 101.217 125.941 100.925 125.816Z" fill="#06033E"/>
<path d="M105.12 128.225L102.395 126.665C102.187 126.541 102.208 126.311 102.458 126.166L105.141 124.606C105.411 124.461 105.723 124.439 105.994 124.565L108.718 126.125C108.926 126.249 108.906 126.478 108.656 126.623L105.973 128.163C105.723 128.329 105.39 128.35 105.12 128.225Z" fill="#06033E"/>
<path d="M109.331 130.655L106.606 129.095C106.398 128.971 106.419 128.741 106.668 128.596L109.351 127.036C109.622 126.891 109.934 126.869 110.204 126.995L112.929 128.555C113.137 128.679 113.116 128.908 112.867 129.053L110.163 130.613C109.913 130.759 109.601 130.78 109.331 130.655Z" fill="#06033E"/>
<path d="M113.526 133.071L110.801 131.511C110.593 131.386 110.614 131.157 110.863 131.011L113.567 129.451C113.838 129.306 114.15 129.285 114.42 129.41L117.145 130.97C117.353 131.095 117.332 131.323 117.082 131.469L114.378 133.029C114.108 133.195 113.796 133.195 113.526 133.071Z" fill="#06033E"/>
<path d="M117.736 135.508L115.011 133.948C114.803 133.823 114.824 133.594 115.073 133.449L117.777 131.889C118.048 131.743 118.36 131.722 118.631 131.847L121.355 133.407C121.563 133.532 121.543 133.761 121.293 133.906L118.609 135.466C118.318 135.612 118.007 135.633 117.736 135.508Z" fill="#06033E"/>
<path d="M121.902 137.916L119.177 136.356C118.969 136.231 118.99 136.003 119.239 135.857L121.922 134.297C122.193 134.151 122.505 134.131 122.775 134.255L125.5 135.815C125.708 135.94 125.687 136.169 125.438 136.315L122.734 137.875C122.484 138.02 122.172 138.041 121.902 137.916Z" fill="#06033E"/>
<path d="M64.3422 118.824L56.3342 114.206C56.1262 114.081 56.147 113.852 56.3966 113.706L59.0798 112.168C59.3502 112.022 59.6622 112.001 59.9326 112.126L67.9406 116.744C68.1486 116.868 68.1278 117.097 67.8782 117.242L65.1742 118.802C64.9246 118.928 64.6126 118.948 64.3422 118.824Z" fill="#06033E"/>
<path d="M115.914 148.611L107.906 143.994C107.698 143.868 107.718 143.64 107.968 143.494L110.672 141.934C110.942 141.788 111.254 141.768 111.524 141.892L119.532 146.51C119.74 146.635 119.72 146.864 119.47 147.01L116.766 148.57C116.496 148.715 116.184 148.736 115.914 148.611Z" fill="#06033E"/>
<path d="M99.1081 144.264L96.3828 142.704C96.1748 142.58 96.1961 142.351 96.4458 142.206L99.6486 140.354C99.9188 140.208 100.231 140.188 100.502 140.312L103.226 141.872C103.434 141.998 103.414 142.226 103.164 142.372L99.9401 144.223C99.6903 144.368 99.3783 144.39 99.1081 144.264Z" fill="#06033E"/>
<path d="M68.6438 126.667L64.2966 124.15C64.0886 124.025 64.1094 123.796 64.359 123.651L67.5622 121.799C67.8326 121.654 68.1446 121.633 68.415 121.758L72.7622 124.275C72.9702 124.399 72.9494 124.628 72.6998 124.774L69.4966 126.625C69.2262 126.771 68.9142 126.791 68.6438 126.667Z" fill="#06033E"/>
<path d="M95.0727 141.934L90.7252 139.417C90.5172 139.293 90.5384 139.063 90.7874 138.918L93.9909 137.067C94.2612 136.921 94.5732 136.901 94.8434 137.025L99.1909 139.542C99.3989 139.667 99.3784 139.895 99.1287 140.041L95.9252 141.893C95.6549 142.038 95.3429 142.059 95.0727 141.934Z" fill="#06033E"/>
<path d="M74.7009 130.16L70.3537 127.643C70.1457 127.519 70.1665 127.29 70.4161 127.145L73.6193 125.293C73.8897 125.147 74.2017 125.127 74.4721 125.251L78.8193 127.768C79.0273 127.893 79.0068 128.122 78.757 128.267L75.5537 130.119C75.2833 130.285 74.9713 130.285 74.7009 130.16Z" fill="#06033E"/>
<path d="M74.5071 125.295L93.4146 136.215C93.5391 136.257 93.6226 136.402 93.5808 136.547C93.5596 136.631 93.4973 136.693 93.4146 136.714L90.1488 138.607C89.8786 138.753 89.5666 138.753 89.2956 138.607L70.3887 127.687L74.5071 125.295Z" fill="#06033E"/>
<path d="M110.852 148.675L113.868 150.422C114.055 150.526 114.035 150.713 113.827 150.817L112.516 151.566C112.308 151.691 112.037 151.691 111.829 151.587L108.793 149.839C108.605 149.735 108.627 149.548 108.835 149.444L110.145 148.695C110.373 148.571 110.644 148.571 110.852 148.675Z" fill="#06033E"/>
<path d="M106.621 146.215L109.658 147.962C109.845 148.066 109.824 148.253 109.616 148.357L108.306 149.106C108.098 149.231 107.827 149.231 107.619 149.127L104.582 147.379C104.395 147.275 104.416 147.089 104.624 146.985L105.934 146.235C106.142 146.131 106.392 146.111 106.621 146.215Z" fill="#06033E"/>
<path d="M102.422 143.785L105.438 145.532C105.626 145.636 105.605 145.824 105.397 145.928L104.086 146.676C103.878 146.801 103.608 146.801 103.38 146.697L100.342 144.95C100.156 144.846 100.176 144.659 100.384 144.555L101.694 143.806C101.944 143.702 102.194 143.681 102.422 143.785Z" fill="#06033E"/>
<path d="M108.932 144.885L111.969 146.633C112.156 146.737 112.135 146.924 111.927 147.028L110.617 147.777C110.409 147.901 110.138 147.901 109.909 147.797L106.873 146.05C106.685 145.946 106.706 145.759 106.914 145.655L108.225 144.906C108.453 144.781 108.724 144.781 108.932 144.885Z" fill="#06033E"/>
</g>
<path d="M54.4137 118.448L51.6889 116.888C51.4601 116.764 51.5017 116.535 51.7513 116.39L54.9545 114.538C55.2249 114.392 55.5369 114.372 55.8073 114.496L58.5321 116.056C58.7401 116.182 58.7193 116.41 58.4697 116.556L55.2665 118.407C54.9961 118.574 54.6841 118.574 54.4137 118.448Z" fill="white"/>
<path d="M58.6152 120.886L55.8904 119.326C55.6824 119.201 55.7032 118.973 55.9528 118.827L59.156 116.976C59.4264 116.83 59.7384 116.809 60.0088 116.934L62.7336 118.494C62.9416 118.619 62.9208 118.848 62.6712 118.993L59.468 120.845C59.1976 120.99 58.8856 121.011 58.6152 120.886Z" fill="white"/>
<path d="M62.811 123.294L60.0862 121.734C59.8782 121.61 59.899 121.381 60.1486 121.235L63.3518 119.384C63.6222 119.238 63.9342 119.218 64.2046 119.342L66.9294 120.902C67.1374 121.027 67.1166 121.256 66.867 121.402L63.6638 123.253C63.3934 123.419 63.0814 123.419 62.811 123.294Z" fill="white"/>
<path d="M68.6166 121.297L65.8918 119.737C65.6838 119.612 65.7046 119.383 65.9542 119.237L68.6582 117.677C68.9286 117.532 69.2406 117.511 69.511 117.636L72.2358 119.196C72.4438 119.321 72.423 119.549 72.1734 119.695L69.4694 121.255C69.199 121.401 68.887 121.421 68.6166 121.297Z" fill="white"/>
<path d="M72.8266 123.733L70.1018 122.152C69.8938 122.027 69.9146 121.799 70.1642 121.653L72.8682 120.093C73.1386 119.947 73.4506 119.927 73.721 120.051L76.4458 121.611C76.6538 121.736 76.633 121.965 76.3834 122.111L73.6794 123.671C73.409 123.837 73.097 123.858 72.8266 123.733Z" fill="white"/>
<path d="M77.0069 126.142L74.2824 124.582C74.0744 124.458 74.0952 124.228 74.3448 124.083L77.0487 122.523C77.3189 122.378 77.6309 122.356 77.902 122.482L80.6264 124.042C80.8344 124.166 80.8139 124.395 80.5642 124.54L77.8602 126.1C77.6104 126.267 77.2984 126.267 77.0069 126.142Z" fill="white"/>
<path d="M81.2029 128.58L78.4784 127.02C78.2704 126.895 78.2909 126.666 78.5406 126.52L81.2241 124.96C81.4944 124.815 81.8064 124.794 82.0766 124.919L84.8011 126.479C85.0091 126.604 84.9886 126.832 84.7389 126.978L82.0349 128.538C81.8064 128.684 81.4731 128.704 81.2029 128.58Z" fill="white"/>
<path d="M85.3982 130.995L82.6737 129.435C82.4657 129.31 82.4862 129.081 82.7359 128.936L85.4399 127.376C85.7102 127.23 86.0222 127.209 86.2924 127.334L89.0177 128.894C89.2257 129.019 89.2044 129.248 88.9554 129.393L86.2514 130.953C85.9804 131.12 85.6684 131.12 85.3982 130.995Z" fill="white"/>
<path d="M89.6086 133.425L86.8841 131.865C86.6761 131.741 86.6966 131.512 86.9464 131.366L89.6504 129.806C89.9206 129.661 90.2326 129.64 90.5029 129.765L93.2281 131.325C93.4361 131.449 93.4149 131.678 93.1651 131.824L90.4824 133.384C90.1909 133.529 89.8789 133.55 89.6086 133.425Z" fill="white"/>
<path d="M93.8044 135.841L91.0799 134.281C90.8719 134.155 90.8924 133.927 91.1422 133.781L93.8462 132.221C94.1164 132.075 94.4284 132.055 94.6987 132.179L97.4239 133.739C97.6319 133.865 97.6107 134.093 97.3609 134.239L94.6569 135.799C94.3867 135.965 94.0747 135.965 93.8044 135.841Z" fill="white"/>
<path d="M98.0143 138.27L95.2891 136.71C95.0811 136.585 95.1023 136.357 95.3521 136.211L98.0561 134.651C98.3263 134.505 98.6383 134.485 98.9086 134.609L101.633 136.169C101.841 136.294 101.821 136.523 101.571 136.669L98.8668 138.229C98.5966 138.374 98.2846 138.395 98.0143 138.27Z" fill="white"/>
<path d="M102.195 140.686L99.4701 139.126C99.2621 139.001 99.2826 138.773 99.5323 138.627L102.236 137.067C102.507 136.921 102.819 136.901 103.089 137.025L105.814 138.585C106.022 138.71 106.001 138.939 105.752 139.085L103.048 140.645C102.798 140.811 102.465 140.811 102.195 140.686Z" fill="white"/>
<path d="M106.39 143.116L103.666 141.556C103.458 141.431 103.478 141.202 103.728 141.057L106.432 139.497C106.702 139.351 107.014 139.33 107.285 139.455L110.01 141.015C110.218 141.14 110.197 141.369 109.947 141.514L107.243 143.074C106.973 143.22 106.661 143.241 106.39 143.116Z" fill="white"/>
<path d="M74.8004 120.158L72.0964 118.577C71.8884 118.452 71.9092 118.224 72.1588 118.078L74.842 116.518C75.1124 116.372 75.4244 116.352 75.6948 116.476L78.4198 118.036C78.6278 118.161 78.6065 118.39 78.3575 118.536L75.674 120.096C75.4036 120.262 75.0708 120.283 74.8004 120.158Z" fill="white"/>
<path d="M70.537 117.699L67.8122 116.117C67.6042 115.993 67.625 115.764 67.8746 115.619L70.5786 114.059C70.849 113.913 71.161 113.892 71.4314 114.017L74.1562 115.577C74.3642 115.701 74.3434 115.931 74.0938 116.076L71.3898 117.636C71.1402 117.803 70.8282 117.823 70.537 117.699Z" fill="white"/>
<path d="M66.2708 115.225L60.426 111.856C60.218 111.731 60.2388 111.502 60.4884 111.356L63.1924 109.796C63.4628 109.651 63.7748 109.63 64.0452 109.755L69.89 113.124C70.098 113.249 70.0772 113.478 69.8276 113.624L67.1236 115.184C66.8532 115.35 66.5412 115.35 66.2708 115.225Z" fill="white"/>
<path d="M69.2607 112.231L64.5183 109.485C64.3103 109.36 64.3311 109.131 64.5807 108.985L67.2847 107.425C67.5551 107.28 67.8671 107.259 68.1375 107.384L72.8799 110.129C73.0879 110.255 73.0671 110.483 72.8175 110.629L70.1135 112.189C69.8431 112.335 69.5311 112.355 69.2607 112.231Z" fill="white"/>
<path d="M79.0019 122.567L76.2771 121.007C76.0691 120.882 76.0899 120.654 76.3395 120.508L79.0437 118.948C79.3139 118.802 79.6259 118.782 79.8962 118.906L82.6207 120.466C82.8287 120.591 82.8082 120.82 82.5584 120.966L79.8544 122.526C79.5842 122.692 79.2722 122.692 79.0019 122.567Z" fill="white"/>
<path d="M83.197 125.005L80.4725 123.445C80.2645 123.32 80.285 123.091 80.5348 122.945L83.2388 121.385C83.509 121.24 83.821 121.219 84.0913 121.344L86.8165 122.904C87.0245 123.029 87.0032 123.257 86.7543 123.403L84.0503 124.963C83.7792 125.109 83.4672 125.129 83.197 125.005Z" fill="white"/>
<path d="M87.4079 127.414L84.6827 125.854C84.4747 125.729 84.4959 125.501 84.7449 125.355L87.4284 123.815C87.6987 123.67 88.0107 123.649 88.2809 123.774L91.0062 125.334C91.2142 125.459 91.1929 125.687 90.944 125.833L88.2399 127.393C87.9902 127.539 87.6782 127.559 87.4079 127.414Z" fill="white"/>
<path d="M91.6028 129.85L88.8783 128.29C88.6703 128.165 88.6908 127.937 88.9405 127.791L91.6445 126.231C91.9148 126.085 92.2268 126.065 92.4978 126.189L95.2223 127.749C95.4303 127.874 95.4098 128.103 95.16 128.249L92.456 129.809C92.1645 129.954 91.8525 129.975 91.6028 129.85Z" fill="white"/>
<path d="M95.7834 132.28L93.0589 130.72C92.8509 130.595 92.8714 130.366 93.1212 130.221L95.8252 128.661C96.0954 128.515 96.4074 128.494 96.6784 128.619L99.4029 130.179C99.6109 130.304 99.5904 130.533 99.3407 130.678L96.6367 132.238C96.3869 132.384 96.0544 132.384 95.7834 132.28Z" fill="white"/>
<path d="M99.9943 134.696L97.269 133.136C97.061 133.011 97.0823 132.782 97.3321 132.637L100.015 131.077C100.285 130.931 100.597 130.91 100.868 131.035L103.593 132.595C103.801 132.72 103.78 132.949 103.53 133.094L100.826 134.654C100.577 134.8 100.265 134.821 99.9943 134.696Z" fill="white"/>
<path d="M104.19 137.126L101.464 135.566C101.256 135.441 101.278 135.212 101.527 135.066L104.231 133.506C104.502 133.361 104.814 133.34 105.084 133.465L107.788 135.046C107.996 135.17 107.975 135.4 107.726 135.545L105.022 137.105C104.772 137.23 104.46 137.25 104.19 137.126Z" fill="white"/>
<path d="M108.384 139.541L105.66 137.981C105.452 137.856 105.472 137.628 105.722 137.482L108.426 135.922C108.696 135.776 109.008 135.756 109.279 135.88L112.004 137.44C112.212 137.565 112.191 137.794 111.941 137.94L109.258 139.5C108.967 139.645 108.655 139.666 108.384 139.541Z" fill="white"/>
<path d="M112.595 141.972L109.87 140.412C109.662 140.286 109.683 140.058 109.933 139.912L112.637 138.352C112.907 138.206 113.219 138.186 113.49 138.31L116.194 139.87C116.402 139.996 116.381 140.224 116.131 140.37L113.427 141.93C113.178 142.076 112.866 142.076 112.595 141.972Z" fill="white"/>
<path d="M120.038 146.281L114.11 142.849C113.902 142.724 113.923 142.495 114.172 142.35L116.876 140.79C117.147 140.644 117.459 140.623 117.729 140.748L123.657 144.18C123.865 144.305 123.844 144.534 123.595 144.679L120.912 146.239C120.641 146.385 120.308 146.406 120.038 146.281Z" fill="white"/>
<path d="M128.209 141.559L123.195 138.668C122.987 138.543 123.009 138.315 123.258 138.169L125.962 136.609C126.233 136.463 126.545 136.443 126.815 136.567L131.827 139.459C132.035 139.583 132.015 139.812 131.765 139.957L129.082 141.517C128.811 141.663 128.499 141.684 128.209 141.559Z" fill="white"/>
<path d="M86.3444 122.109L83.6191 120.549C83.4111 120.425 83.4324 120.196 83.6822 120.05L86.3862 118.49C86.6564 118.345 86.9684 118.324 87.2386 118.449L89.9631 120.009C90.1711 120.133 90.1507 120.362 89.9009 120.508L87.1969 122.068C86.9471 122.213 86.6351 122.234 86.3444 122.109Z" fill="white"/>
<path d="M82.0598 119.613L79.3353 118.053C79.1273 117.927 79.1478 117.699 79.3975 117.553L82.1015 115.993C82.3718 115.847 82.6838 115.827 82.954 115.951L85.6793 117.511C85.8873 117.637 85.866 117.865 85.617 118.011L82.9335 119.571C82.642 119.737 82.33 119.737 82.0598 119.613Z" fill="white"/>
<path d="M77.7463 117.138L75.0212 115.578C74.8132 115.454 74.834 115.224 75.0836 115.079L77.7873 113.519C78.0583 113.374 78.3703 113.352 78.6406 113.478L81.3651 115.038C81.5731 115.162 81.5526 115.391 81.3028 115.536L78.5988 117.096C78.3286 117.242 78.0166 117.263 77.7463 117.138Z" fill="white"/>
<path d="M73.4472 114.642L70.7224 113.082C70.5144 112.957 70.5352 112.728 70.7848 112.583L73.4888 111.023C73.7592 110.877 74.0712 110.856 74.3416 110.981L77.0663 112.541C77.2743 112.666 77.2538 112.895 77.0041 113.04L74.3 114.6C74.0296 114.767 73.7176 114.767 73.4472 114.642Z" fill="white"/>
<path d="M90.5393 124.524L87.8148 122.964C87.6068 122.84 87.6273 122.611 87.877 122.466L90.5605 120.906C90.8308 120.76 91.1428 120.739 91.413 120.864L94.1375 122.424C94.3455 122.548 94.325 122.778 94.0753 122.923L91.3713 124.483C91.1428 124.628 90.8095 124.65 90.5393 124.524Z" fill="white"/>
<path d="M94.7502 126.954L92.025 125.394C91.817 125.27 91.8382 125.041 92.0872 124.895L94.7912 123.335C95.0622 123.19 95.3742 123.169 95.6445 123.294L98.369 124.854C98.577 124.978 98.5565 125.207 98.3067 125.353L95.6027 126.913C95.3325 127.058 95.0205 127.079 94.7502 126.954Z" fill="white"/>
<path d="M98.945 129.37L96.2197 127.81C96.0117 127.686 96.033 127.456 96.2827 127.311L98.9867 125.751C99.257 125.606 99.569 125.584 99.8392 125.71L102.564 127.27C102.772 127.394 102.751 127.623 102.501 127.768L99.7975 129.328C99.5272 129.474 99.2152 129.495 98.945 129.37Z" fill="white"/>
<path d="M103.155 131.8L100.431 130.24C100.223 130.115 100.243 129.887 100.493 129.741L103.176 128.181C103.447 128.035 103.759 128.015 104.029 128.139L106.753 129.699C106.961 129.824 106.941 130.053 106.691 130.199L103.987 131.759C103.737 131.904 103.425 131.925 103.155 131.8Z" fill="white"/>
<path d="M107.351 134.215L104.626 132.655C104.418 132.531 104.439 132.302 104.689 132.156L107.393 130.596C107.663 130.451 107.975 130.43 108.245 130.555L110.97 132.135C111.178 132.26 111.157 132.489 110.908 132.635L108.225 134.195C107.933 134.319 107.621 134.34 107.351 134.215Z" fill="white"/>
<path d="M111.531 136.653L108.807 135.093C108.599 134.968 108.619 134.739 108.869 134.593L111.573 133.033C111.843 132.888 112.155 132.867 112.426 132.992L115.151 134.552C115.359 134.677 115.338 134.905 115.089 135.051L112.385 136.611C112.135 136.757 111.823 136.777 111.531 136.653Z" fill="white"/>
<path d="M115.727 139.062L113.001 137.502C112.793 137.377 112.815 137.149 113.064 137.003L115.768 135.464C116.039 135.318 116.351 135.297 116.621 135.422L119.345 136.982C119.553 137.107 119.533 137.336 119.283 137.481L116.579 139.041C116.309 139.187 115.997 139.187 115.727 139.062Z" fill="white"/>
<path d="M119.937 141.499L117.213 139.939C117.005 139.814 117.025 139.585 117.275 139.439L119.979 137.879C120.249 137.734 120.561 137.713 120.831 137.838L123.557 139.398C123.765 139.523 123.743 139.751 123.494 139.897L120.79 141.457C120.519 141.603 120.207 141.623 119.937 141.499Z" fill="white"/>
<path d="M124.133 143.906L121.407 142.346C121.199 142.222 121.221 141.993 121.47 141.847L124.174 140.287C124.445 140.142 124.757 140.121 125.027 140.246L127.751 141.806C127.959 141.93 127.939 142.159 127.689 142.305L124.985 143.865C124.715 144.031 124.403 144.031 124.133 143.906Z" fill="white"/>
<path d="M84.1427 116.119L81.4175 114.559C81.2095 114.434 81.2307 114.205 81.4805 114.06L84.1845 112.5C84.4547 112.354 84.7667 112.333 85.037 112.458L87.7615 114.018C87.9695 114.143 87.949 114.372 87.6992 114.517L84.9952 116.056C84.7455 116.223 84.413 116.244 84.1427 116.119Z" fill="white"/>
<path d="M79.9621 113.704L77.2369 112.144C77.0289 112.019 77.0501 111.79 77.2991 111.644L80.0031 110.084C80.2741 109.939 80.5861 109.918 80.8564 110.043L83.5809 111.603C83.7889 111.728 83.7684 111.956 83.5186 112.102L80.8146 113.662C80.5649 113.808 80.2324 113.828 79.9621 113.704Z" fill="white"/>
<path d="M75.7958 111.296L73.071 109.736C72.863 109.611 72.8838 109.382 73.1334 109.236L75.8374 107.676C76.1078 107.531 76.4198 107.51 76.6903 107.635L79.4148 109.195C79.6228 109.32 79.6023 109.548 79.3525 109.694L76.6486 111.254C76.3782 111.4 76.0662 111.42 75.7958 111.296Z" fill="white"/>
<path d="M71.6152 108.88L68.8904 107.32C68.6824 107.195 68.7032 106.967 68.9528 106.821L71.6568 105.261C71.9272 105.115 72.2392 105.095 72.5096 105.219L75.2136 106.779C75.4216 106.904 75.4008 107.133 75.1512 107.279L72.4472 108.839C72.1976 108.984 71.8856 108.984 71.6152 108.88Z" fill="white"/>
<path d="M75.8993 106.385L73.1745 104.825C72.9665 104.701 72.9873 104.472 73.2369 104.326L74.1313 103.806C74.4017 103.661 74.7137 103.64 74.9841 103.765L77.7091 105.325C77.9171 105.449 77.8958 105.678 77.6468 105.824L76.7518 106.344C76.5025 106.51 76.1697 106.51 75.8993 106.385Z" fill="white"/>
<path d="M81.3508 109.546L78.6263 107.986C78.4183 107.862 78.4388 107.633 78.6886 107.487L79.5623 106.967C79.8326 106.822 80.1446 106.801 80.4148 106.926L83.1401 108.486C83.3481 108.61 83.3268 108.839 83.0771 108.985L82.1828 109.505C81.9331 109.65 81.6211 109.671 81.3508 109.546Z" fill="white"/>
<path d="M85.5017 111.939L82.7772 110.38C82.5692 110.255 82.5897 110.026 82.8394 109.88L83.7337 109.36C84.0047 109.215 84.3167 109.194 84.5869 109.319L87.3114 110.879C87.5194 111.003 87.4989 111.232 87.2492 111.378L86.3549 111.898C86.1052 112.064 85.7727 112.064 85.5017 111.939Z" fill="white"/>
<path d="M89.6677 114.355L86.9432 112.795C86.7352 112.67 86.7557 112.442 87.0055 112.296L87.8997 111.776C88.17 111.63 88.482 111.61 88.753 111.734L91.4775 113.294C91.6855 113.419 91.665 113.648 91.4152 113.794L90.521 114.314C90.2712 114.459 89.938 114.48 89.6677 114.355Z" fill="white"/>
<path d="M93.8337 116.741L91.1092 115.181C90.9012 115.056 90.9217 114.827 91.1715 114.682L92.0657 114.162C92.336 114.016 92.648 113.995 92.9182 114.12L95.6435 115.701C95.8515 115.826 95.8302 116.054 95.5812 116.2L94.6862 116.72C94.4372 116.845 94.104 116.866 93.8337 116.741Z" fill="white"/>
<path d="M117.056 130.162L114.332 128.602C114.124 128.477 114.144 128.248 114.394 128.103L115.288 127.583C115.559 127.437 115.871 127.416 116.142 127.541L118.866 129.101C119.074 129.226 119.054 129.455 118.804 129.6L117.91 130.12C117.639 130.266 117.327 130.287 117.056 130.162Z" fill="white"/>
<path d="M121.222 132.555L118.498 130.995C118.29 130.87 118.31 130.641 118.56 130.496L119.454 129.976C119.725 129.83 120.037 129.809 120.307 129.934L123.032 131.494C123.24 131.619 123.219 131.848 122.97 131.993L122.075 132.513C121.805 132.659 121.493 132.68 121.222 132.555Z" fill="white"/>
<path d="M125.388 134.962L122.663 133.381C122.455 133.256 122.476 133.028 122.726 132.882L123.62 132.362C123.891 132.216 124.203 132.196 124.473 132.32L127.198 133.88C127.406 134.005 127.385 134.234 127.135 134.38L126.241 134.9C125.971 135.066 125.659 135.066 125.388 134.962Z" fill="white"/>
<path d="M129.539 137.356L126.815 135.796C126.607 135.671 126.627 135.442 126.877 135.297L127.771 134.777C128.042 134.631 128.354 134.61 128.625 134.735L131.349 136.295C131.557 136.42 131.537 136.649 131.287 136.794L130.393 137.314C130.122 137.46 129.81 137.481 129.539 137.356Z" fill="white"/>
<path d="M88.3385 118.533L85.6133 116.952C85.4053 116.827 85.4265 116.598 85.6763 116.453L88.359 114.893C88.6293 114.747 88.9413 114.726 89.2123 114.851L91.9368 116.411C92.1448 116.536 92.1243 116.765 91.8745 116.91L89.1705 118.47C88.9208 118.637 88.6088 118.658 88.3385 118.533Z" fill="white"/>
<path d="M92.5334 120.942L89.8089 119.382C89.6009 119.257 89.6214 119.028 89.8712 118.882L92.5752 117.322C92.8454 117.177 93.1574 117.156 93.4277 117.281L96.1529 118.841C96.3609 118.966 96.3397 119.194 96.0899 119.34L93.3859 120.9C93.1157 121.066 92.8037 121.066 92.5334 120.942Z" fill="white"/>
<path d="M96.7434 123.38L94.0189 121.82C93.8109 121.695 93.8314 121.466 94.0811 121.32L96.7851 119.76C97.0554 119.615 97.3674 119.594 97.6384 119.719L100.363 121.279C100.571 121.404 100.55 121.632 100.301 121.778L97.6171 123.338C97.3264 123.484 97.0144 123.504 96.7434 123.38Z" fill="white"/>
<path d="M100.925 125.816L98.1997 124.235C97.9917 124.11 98.013 123.882 98.2627 123.736L100.967 122.176C101.237 122.03 101.549 122.01 101.819 122.134L104.544 123.715C104.752 123.84 104.731 124.069 104.481 124.214L101.777 125.774C101.528 125.92 101.216 125.941 100.925 125.816Z" fill="white"/>
<path d="M105.12 128.225L102.395 126.665C102.187 126.541 102.208 126.311 102.457 126.166L105.141 124.606C105.411 124.461 105.723 124.439 105.993 124.565L108.719 126.125C108.927 126.249 108.905 126.478 108.656 126.623L105.973 128.163C105.723 128.329 105.391 128.35 105.12 128.225Z" fill="white"/>
<path d="M109.331 130.662L106.606 129.102C106.398 128.977 106.419 128.749 106.668 128.603L109.351 127.043C109.622 126.897 109.934 126.877 110.204 127.001L112.929 128.561C113.137 128.686 113.116 128.915 112.867 129.061L110.163 130.621C109.913 130.766 109.601 130.787 109.331 130.662Z" fill="white"/>
<path d="M113.526 133.071L110.801 131.511C110.593 131.386 110.614 131.157 110.863 131.011L113.567 129.451C113.838 129.306 114.15 129.285 114.421 129.41L117.145 130.97C117.353 131.095 117.333 131.323 117.083 131.469L114.379 133.029C114.109 133.195 113.797 133.195 113.526 133.071Z" fill="white"/>
<path d="M117.736 135.508L115.011 133.948C114.803 133.823 114.824 133.594 115.073 133.449L117.777 131.889C118.048 131.743 118.36 131.722 118.631 131.847L121.355 133.407C121.563 133.532 121.543 133.761 121.293 133.906L118.609 135.466C118.318 135.612 118.007 135.633 117.736 135.508Z" fill="white"/>
<path d="M121.917 137.916L119.191 136.356C118.983 136.231 119.005 136.002 119.254 135.856L121.937 134.296C122.207 134.151 122.519 134.13 122.79 134.255L125.515 135.815C125.723 135.94 125.702 136.168 125.453 136.314L122.749 137.874C122.499 138.02 122.187 138.04 121.917 137.916Z" fill="white"/>
<path d="M64.3417 118.824L56.3337 114.206C56.1257 114.081 56.1465 113.852 56.3961 113.706L59.0793 112.168C59.3497 112.022 59.6617 112.001 59.9321 112.126L67.9401 116.744C68.1481 116.868 68.1273 117.097 67.8777 117.242L65.1737 118.802C64.9241 118.928 64.6121 118.948 64.3417 118.824Z" fill="white"/>
<path d="M115.914 148.611L107.906 143.994C107.698 143.868 107.718 143.64 107.968 143.494L110.672 141.934C110.942 141.788 111.254 141.768 111.524 141.892L119.532 146.51C119.74 146.635 119.72 146.864 119.47 147.01L116.766 148.57C116.496 148.715 116.184 148.736 115.914 148.611Z" fill="white"/>
<path d="M99.1076 144.264L96.3831 142.704C96.1751 142.579 96.1956 142.35 96.4454 142.205L99.6489 140.354C99.9191 140.208 100.231 140.187 100.501 140.312L103.226 141.872C103.434 141.997 103.413 142.226 103.164 142.371L99.9396 144.222C99.6899 144.368 99.3779 144.389 99.1076 144.264Z" fill="white"/>
<path d="M68.6438 126.667L64.2966 124.15C64.0886 124.025 64.1094 123.796 64.359 123.651L67.5622 121.799C67.8326 121.654 68.1446 121.633 68.415 121.758L72.7622 124.275C72.9702 124.399 72.9494 124.628 72.6998 124.774L69.4966 126.625C69.2262 126.771 68.9142 126.791 68.6438 126.667Z" fill="white"/>
<path d="M95.0717 141.934L90.7249 139.417C90.5169 139.293 90.5374 139.063 90.7872 138.918L93.9907 137.067C94.2609 136.921 94.5729 136.901 94.8432 137.025L99.1907 139.542C99.3987 139.667 99.3774 139.895 99.1277 140.041L95.9249 141.893C95.6547 142.038 95.3427 142.059 95.0717 141.934Z" fill="white"/>
<path d="M74.7004 130.16L70.3532 127.643C70.1452 127.518 70.166 127.29 70.4156 127.144L73.6188 125.293C73.8892 125.147 74.2012 125.126 74.4716 125.251L78.8191 127.768C79.0272 127.893 79.0059 128.122 78.7561 128.267L75.5532 130.118C75.2828 130.285 74.9708 130.285 74.7004 130.16Z" fill="white"/>
<path d="M74.5071 125.295L93.4141 136.215C93.5394 136.257 93.6221 136.402 93.5804 136.547C93.5599 136.631 93.4976 136.693 93.4141 136.714L90.1484 138.607C89.8781 138.753 89.5661 138.753 89.2959 138.607L70.3887 127.687L74.5071 125.295Z" fill="white"/>
<path d="M110.838 148.674L113.854 150.422C114.041 150.526 114.021 150.712 113.813 150.816L112.502 151.566C112.294 151.69 112.023 151.69 111.815 151.586L108.779 149.839C108.591 149.735 108.613 149.548 108.821 149.444L110.131 148.695C110.359 148.57 110.63 148.57 110.838 148.674Z" fill="white"/>
<path d="M106.621 146.215L109.658 147.962C109.845 148.066 109.825 148.253 109.617 148.357L108.306 149.106C108.098 149.231 107.827 149.231 107.619 149.127L104.583 147.379C104.395 147.275 104.417 147.089 104.625 146.985L105.935 146.235C106.143 146.131 106.393 146.111 106.621 146.215Z" fill="white"/>
<path d="M102.423 143.785L105.439 145.532C105.627 145.636 105.605 145.823 105.397 145.927L104.087 146.676C103.879 146.801 103.609 146.801 103.38 146.697L100.343 144.949C100.156 144.845 100.177 144.659 100.385 144.555L101.695 143.805C101.945 143.701 102.195 143.681 102.423 143.785Z" fill="white"/>
<path d="M108.932 144.885L111.969 146.633C112.156 146.737 112.135 146.924 111.927 147.028L110.617 147.777C110.409 147.901 110.138 147.901 109.909 147.797L106.873 146.05C106.685 145.946 106.706 145.759 106.914 145.655L108.225 144.906C108.453 144.781 108.724 144.781 108.932 144.885Z" fill="white"/>
<path d="M153.353 139.976L73.1688 93.6751C71.9 92.9471 71.2552 91.1791 71.692 89.7231L89.8294 30.8386C90.2871 29.3826 91.6604 28.7794 92.9289 29.5074L173.113 75.8082C174.381 76.5364 175.027 78.3044 174.589 79.7604L156.452 138.624C156.015 140.101 154.621 140.704 153.353 139.976Z" fill="url(#paint3_linear_1_6332)"/>
<path d="M152.605 137.921L74.8127 92.9722C73.6063 92.2647 72.9823 90.5802 73.3983 89.1865L90.7452 32.9016C91.1824 31.508 92.5132 30.9464 93.6989 31.6328L171.491 76.582C172.697 77.2887 173.321 78.974 172.905 80.3669L155.558 136.652C155.142 138.046 153.811 138.607 152.605 137.921Z" fill="url(#paint4_linear_1_6332)"/>
<path opacity="0.4" d="M152.605 137.921L74.8127 92.9722C73.6063 92.2647 72.9823 90.5802 73.3983 89.1865L90.7452 32.9016C91.1824 31.508 92.5132 30.9464 93.6989 31.6328L171.491 76.582C172.697 77.2887 173.321 78.974 172.905 80.3669L155.558 136.652C155.142 138.046 153.811 138.607 152.605 137.921Z" fill="#06033E"/>
<path d="M152.605 137.921L74.8127 92.9722C73.6063 92.2647 72.9823 90.5802 73.3983 89.1865L90.7452 32.9016C91.1824 31.508 92.5132 30.9464 93.6989 31.6328L171.491 76.582C172.697 77.2887 173.321 78.974 172.905 80.3669L155.558 136.652C155.142 138.046 153.811 138.607 152.605 137.921Z" fill="black"/>
<g opacity="0.3">
<path d="M111.069 58.0438L102.166 52.6774C101.896 52.511 101.584 52.5942 101.501 52.8438C101.438 53.1558 101.564 53.4678 101.834 53.6134L110.736 58.9798C111.006 59.1462 111.318 59.063 111.402 58.8134C111.485 58.5014 111.34 58.1894 111.069 58.0438Z" fill="white"/>
<path d="M135.94 73.0004L121.172 64.1188C120.902 63.9524 120.59 64.0356 120.506 64.2852C120.423 64.5972 120.569 64.9092 120.839 65.0548L135.607 73.9364C135.878 74.1028 136.19 74.0196 136.273 73.77C136.335 73.458 136.21 73.1668 135.94 73.0004Z" fill="white"/>
<path d="M118.242 62.3469L114.103 59.8717C113.833 59.7053 113.521 59.7885 113.437 60.0381C113.375 60.3501 113.499 60.6621 113.77 60.8077L117.889 63.2829C118.159 63.4493 118.471 63.3661 118.554 63.1165C118.637 62.8253 118.513 62.5133 118.242 62.3469Z" fill="white"/>
<path d="M102.104 62.9114L99.2122 61.1642C98.942 60.9978 98.63 61.081 98.5465 61.3306C98.4842 61.6426 98.6095 61.9546 98.8797 62.1002L101.77 63.8474C102.041 64.0138 102.353 63.9306 102.436 63.681C102.498 63.369 102.374 63.057 102.104 62.9114Z" fill="white"/>
<path d="M114.624 70.4618L104.412 64.3258C104.142 64.1594 103.83 64.2426 103.746 64.4922C103.684 64.8042 103.808 65.1162 104.079 65.2618L114.312 71.3978C114.583 71.5642 114.895 71.481 114.978 71.2314C115.04 70.9194 114.916 70.6074 114.624 70.4618Z" fill="white"/>
<path d="M120.208 73.7918L117.316 72.0446C117.046 71.8782 116.734 71.9614 116.651 72.211C116.568 72.523 116.713 72.835 116.984 72.9806L119.875 74.7278C120.145 74.8942 120.457 74.811 120.54 74.5614C120.624 74.2702 120.478 73.9582 120.208 73.7918Z" fill="white"/>
<path d="M132.737 81.3638L122.523 75.2282C122.253 75.0618 121.941 75.145 121.857 75.3946C121.795 75.7066 121.921 76.0188 122.191 76.1638L132.403 82.2998C132.673 82.4668 132.985 82.3833 133.069 82.1335C133.131 81.8215 133.007 81.5095 132.737 81.3638Z" fill="white"/>
<path d="M113.313 74.7848L97.7129 65.404C97.4427 65.2376 97.1306 65.3208 97.0479 65.5704C96.9644 65.8824 97.1102 66.1944 97.3804 66.34L112.98 75.7208C113.251 75.8872 113.563 75.804 113.646 75.5544C113.729 75.2424 113.584 74.9304 113.313 74.7848Z" fill="white"/>
<path d="M128.465 83.8747L116.754 76.8232C116.484 76.657 116.172 76.7405 116.089 76.9895C116.006 77.3015 116.152 77.6135 116.422 77.7592L128.132 84.8107C128.402 84.977 128.714 84.8935 128.798 84.6445C128.881 84.3325 128.736 84.0205 128.465 83.8747Z" fill="white"/>
<path d="M105.145 74.9954L96.243 69.6291C95.972 69.4627 95.66 69.5458 95.5773 69.7954C95.515 70.1074 95.6395 70.4195 95.9098 70.5651L104.812 75.9107C105.083 76.077 105.395 75.9935 105.478 75.7442C105.561 75.453 105.416 75.141 105.145 74.9954Z" fill="white"/>
<path d="M119.204 83.4587L108.18 76.8232C107.909 76.657 107.597 76.7405 107.514 76.9895C107.452 77.3015 107.576 77.6135 107.846 77.7592L118.87 84.3947C119.141 84.561 119.453 84.4775 119.536 84.2285C119.62 83.9165 119.474 83.6045 119.204 83.4587Z" fill="white"/>
<path d="M143.504 77.555L139.386 75.0802C139.116 74.9138 138.804 74.997 138.72 75.2466C138.638 75.5586 138.783 75.8706 139.054 76.0163L143.172 78.491C143.442 78.6581 143.754 78.5745 143.838 78.3248C143.921 78.0128 143.775 77.7008 143.504 77.555Z" fill="white"/>
<path d="M152.918 83.2151L146.574 79.4089C146.303 79.2426 145.991 79.3253 145.908 79.5751C145.846 79.8871 145.97 80.1991 146.24 80.3448L152.564 84.1511C152.834 84.3173 153.146 84.2346 153.23 83.9849C153.334 83.6933 153.188 83.3813 152.918 83.2151Z" fill="white"/>
<path d="M142.548 82.0894L159.105 92.0522C159.375 92.1979 159.521 92.5099 159.438 92.8219C159.354 93.0717 159.042 93.1544 158.772 92.9882L142.215 83.0459C141.945 82.9002 141.799 82.5882 141.882 82.2762C141.966 82.0059 142.278 81.9224 142.548 82.0894Z" fill="white"/>
<path d="M137.126 84.2324L153.683 94.1952C153.953 94.3409 154.099 94.6529 154.016 94.9649C153.933 95.2147 153.621 95.2974 153.35 95.1312L136.793 85.1684C136.523 85.0227 136.377 84.7107 136.46 84.3987C136.564 84.1489 136.856 84.0654 137.126 84.2324Z" fill="white"/>
<path d="M109.885 62.4567L124.653 71.3383C124.924 71.4839 125.069 71.7959 124.987 72.1079C124.903 72.3575 124.591 72.4407 124.321 72.2743L109.553 63.3927C109.283 63.2471 109.137 62.9351 109.22 62.6231C109.303 62.3735 109.615 62.2903 109.885 62.4567Z" fill="white"/>
<path d="M135.368 77.7837L139.487 80.2592C139.757 80.4049 139.882 80.7169 139.82 81.0289C139.736 81.2779 139.424 81.3614 139.154 81.1952L135.036 78.7197C134.765 78.5739 134.62 78.2619 134.703 77.9499C134.807 77.7009 135.098 77.6174 135.368 77.7837Z" fill="white"/>
<path d="M128.1 73.4181L132.219 75.8933C132.489 76.0389 132.635 76.3509 132.551 76.6629C132.468 76.9127 132.156 76.9954 131.885 76.8292L127.767 74.3541C127.497 74.2085 127.351 73.8965 127.435 73.5845C127.539 73.3349 127.829 73.2517 128.1 73.4181Z" fill="white"/>
<path d="M100.691 56.9171L107.035 60.7235C107.305 60.8691 107.451 61.1811 107.368 61.4931C107.285 61.7427 106.973 61.8259 106.702 61.6595L100.379 57.8531C100.109 57.7075 99.9629 57.3955 100.046 57.0835C100.109 56.8339 100.421 56.7507 100.691 56.9171Z" fill="white"/>
<path d="M103.66 79.2424L94.7582 73.8761C94.488 73.7097 94.176 73.7929 94.0925 74.0425C94.0097 74.3545 94.1555 74.6665 94.4257 74.8121L103.328 80.1784C103.598 80.3447 103.91 80.2619 103.994 80.0122C104.076 79.7002 103.931 79.3882 103.66 79.2424Z" fill="white"/>
<path d="M128.524 94.192L113.756 85.3102C113.486 85.144 113.174 85.2267 113.091 85.4765C113.008 85.7885 113.154 86.1005 113.424 86.2462L128.192 95.128C128.462 95.2942 128.774 95.2107 128.858 94.9617C128.94 94.6497 128.795 94.3377 128.524 94.192Z" fill="white"/>
<path d="M110.826 83.546L106.687 81.0705C106.417 80.9042 106.105 80.987 106.021 81.2367C105.959 81.5487 106.083 81.8607 106.354 82.0065L110.493 84.482C110.763 84.6482 111.075 84.5647 111.159 84.315C111.242 84.0242 111.097 83.691 110.826 83.546Z" fill="white"/>
<path d="M94.6801 84.0881L91.7893 82.3413C91.5183 82.1743 91.2063 82.2578 91.1236 82.5076C91.0401 82.8196 91.1858 83.1316 91.4561 83.2773L94.3476 85.0241C94.6178 85.1903 94.9298 85.1076 95.0133 84.8578C95.0961 84.5663 94.9503 84.2543 94.6801 84.0881Z" fill="white"/>
<path d="M107.217 91.6536L97.0038 85.5176C96.7336 85.3506 96.4216 85.4341 96.3381 85.6838C96.2553 85.9958 96.4011 86.3078 96.6713 86.4536L106.884 92.5896C107.154 92.7558 107.466 92.6723 107.55 92.4226C107.612 92.1106 107.487 91.7986 107.217 91.6536Z" fill="white"/>
<path d="M112.792 94.9828L109.9 93.2353C109.63 93.069 109.318 93.1525 109.235 93.4023C109.152 93.7143 109.297 94.0263 109.568 94.1713L112.459 95.9188C112.729 96.085 113.041 96.0023 113.124 95.7525C113.187 95.4405 113.062 95.1285 112.792 94.9828Z" fill="white"/>
<path d="M125.32 102.533L115.107 96.3971C114.837 96.2309 114.525 96.3136 114.441 96.5634C114.379 96.8754 114.504 97.1874 114.775 97.3331L124.987 103.469C125.257 103.635 125.569 103.553 125.653 103.303C125.736 103.011 125.591 102.699 125.32 102.533Z" fill="white"/>
<path d="M105.883 95.9616L90.2825 86.5811C90.0123 86.4141 89.7003 86.4976 89.6167 86.7473C89.5332 87.0593 89.679 87.3713 89.9492 87.5171L105.549 96.8976C105.82 97.0638 106.132 96.9811 106.215 96.7313C106.298 96.4398 106.153 96.1278 105.883 95.9616Z" fill="white"/>
<path d="M131.58 111.417L109.324 98.0225C109.054 97.8555 108.742 97.939 108.659 98.1887C108.575 98.5007 108.721 98.8127 108.991 98.9585L131.268 112.353C131.539 112.519 131.851 112.437 131.934 112.187C131.996 111.895 131.851 111.583 131.58 111.417Z" fill="white"/>
<path d="M97.737 96.1946L88.8348 90.8276C88.5637 90.6613 88.2517 90.7448 88.169 90.9946C88.0855 91.3066 88.2312 91.6186 88.5015 91.7636L97.4037 97.1306C97.6747 97.2968 97.9867 97.2133 98.0695 96.9636C98.1317 96.6516 98.0072 96.3396 97.737 96.1946Z" fill="white"/>
<path d="M104.889 100.497L100.77 98.0225C100.5 97.8555 100.188 97.939 100.105 98.1887C100.022 98.5007 100.168 98.8127 100.438 98.9585L104.577 101.433C104.848 101.599 105.16 101.517 105.242 101.267C105.305 100.975 105.16 100.643 104.889 100.497Z" fill="white"/>
<path d="M136.096 98.7323L131.978 96.2568C131.708 96.0906 131.396 96.1741 131.312 96.4231C131.25 96.7351 131.374 97.0471 131.645 97.1928L135.784 99.6888C136.054 99.8551 136.366 99.7723 136.45 99.5226C136.512 99.2106 136.366 98.8986 136.096 98.7323Z" fill="white"/>
<path d="M136.65 88.7824L132.532 86.3076C132.262 86.1406 131.95 86.2241 131.866 86.4739C131.784 86.7859 131.929 87.0979 132.2 87.2436L136.318 89.7184C136.588 89.8846 136.9 89.8019 136.984 89.5521C137.066 89.2606 136.921 88.9486 136.65 88.7824Z" fill="white"/>
<path d="M145.516 104.407L139.172 100.6C138.902 100.433 138.59 100.517 138.506 100.767C138.444 101.079 138.569 101.391 138.839 101.536L145.183 105.343C145.454 105.509 145.766 105.425 145.849 105.176C145.932 104.864 145.786 104.552 145.516 104.407Z" fill="white"/>
<path d="M135.117 103.281L151.674 113.245C151.945 113.39 152.09 113.702 152.007 114.014C151.923 114.264 151.611 114.347 151.341 114.181L134.785 104.217C134.514 104.072 134.369 103.76 134.451 103.448C134.555 103.198 134.847 103.115 135.117 103.281Z" fill="white"/>
<path d="M102.455 83.6486L117.223 92.5303C117.493 92.6753 117.639 92.9873 117.556 93.2993C117.473 93.5491 117.161 93.6326 116.891 93.4663L102.123 84.5846C101.852 84.4388 101.707 84.1268 101.789 83.8148C101.893 83.5651 102.185 83.4823 102.455 83.6486Z" fill="white"/>
<path d="M127.953 98.9807L132.071 101.455C132.342 101.601 132.487 101.913 132.404 102.225C132.321 102.475 132.009 102.558 131.738 102.391L127.62 99.9167C127.35 99.771 127.204 99.459 127.287 99.147C127.37 98.8767 127.662 98.8137 127.953 98.9807Z" fill="white"/>
<path d="M120.699 94.6093L124.817 97.0848C125.088 97.2306 125.233 97.5426 125.151 97.8546C125.067 98.1043 124.755 98.1871 124.485 98.0208L120.367 95.5453C120.096 95.4003 119.951 95.0883 120.033 94.7763C120.117 94.5266 120.408 94.4431 120.699 94.6093Z" fill="white"/>
<path d="M93.2656 78.1159L99.6096 81.9221C99.8806 82.0679 100.026 82.3799 99.9429 82.6919C99.8594 82.9416 99.5474 83.0244 99.2771 82.8581L92.9331 79.0519C92.6629 78.9061 92.5171 78.5941 92.6006 78.2821C92.7046 78.0324 92.9954 77.9496 93.2656 78.1159Z" fill="white"/>
</g>
<path d="M112.574 103.143L59.9088 72.7331C59.0768 72.2547 58.64 71.0899 58.952 70.1331L70.8496 31.4867C71.1408 30.5299 72.056 30.1347 72.888 30.6131L125.554 61.0019C126.386 61.4803 126.822 62.6451 126.51 63.6019L114.592 102.269C114.301 103.226 113.386 103.621 112.574 103.143Z" fill="#F4F4F4"/>
<path d="M125.55 60.9971L72.8845 30.6083C72.4269 30.3171 71.8445 30.3379 71.4077 30.6499C71.6781 30.6499 71.9277 30.7123 72.1565 30.8371L124.822 61.2467C125.654 61.7251 126.091 62.8899 125.779 63.8467L113.881 102.514C113.798 102.847 113.59 103.117 113.32 103.325C113.881 103.304 114.381 102.93 114.589 102.264L126.486 63.5971C126.798 62.6403 126.361 61.4755 125.55 60.9971Z" fill="#BADE98"/>
<path d="M74.8975 153.205C74.2111 153.226 73.5455 153.059 72.9423 152.747L51.8511 140.579C51.2895 140.247 50.9775 139.789 50.9775 139.29C50.9775 138.687 51.3935 138.104 52.1423 137.667L62.9999 131.386C64.3311 130.616 66.2655 130.554 67.4303 131.219L88.5215 143.408C89.0833 143.72 89.3953 144.199 89.3953 144.698C89.3953 145.301 88.9793 145.883 88.23 146.32L77.373 152.581C76.6239 152.997 75.7711 153.226 74.8975 153.205ZM65.4959 131.365C64.7263 131.365 63.9775 131.552 63.3119 131.927L52.4543 138.187C51.9135 138.499 51.6015 138.895 51.6015 139.269C51.6015 139.643 51.9135 139.893 52.1631 140.039L73.2543 152.207C74.2111 152.768 75.9583 152.685 77.0815 152.04L87.9393 145.779C88.4798 145.467 88.7918 145.072 88.7918 144.698C88.7918 144.323 88.4798 144.074 88.23 143.928L67.1391 131.76C66.6399 131.49 66.0783 131.365 65.4959 131.365Z" fill="white"/>
<path d="M85.7204 50.8906L82.4759 49.0186C82.1639 48.8106 82.0181 48.4362 82.1221 48.0826C82.1844 47.8122 82.4341 47.6666 82.7044 47.7082C82.7666 47.729 82.8084 47.7498 82.8706 47.7706L86.1159 49.6426C86.4279 49.8506 86.5729 50.225 86.4689 50.5786C86.4066 50.849 86.1569 50.9946 85.8866 50.953C85.8039 50.9322 85.7621 50.9114 85.7204 50.8906Z" fill="black"/>
<path d="M93.4552 55.3669L88.6507 52.6005C88.3387 52.3925 88.1929 52.0181 88.2969 51.6645C88.3592 51.4149 88.609 51.2485 88.8587 51.2901C88.921 51.3109 88.9627 51.3317 89.025 51.3525L93.8294 54.1189C94.1414 54.3269 94.2872 54.7013 94.1832 55.0549C94.121 55.3045 93.8712 55.4709 93.6214 55.4293C93.5592 55.4293 93.5174 55.4085 93.4552 55.3669Z" fill="black"/>
<path d="M79.1461 65.3901L75.9015 63.5181C75.5895 63.3101 75.4439 62.9357 75.5479 62.5821C75.6103 62.3117 75.8599 62.1661 76.1303 62.2077C76.1927 62.2285 76.2343 62.2493 76.2967 62.2701L79.5416 64.1421C79.8536 64.3501 79.9994 64.7245 79.8954 65.0781C79.8331 65.3485 79.5834 65.4941 79.3131 65.4525C79.2501 65.4317 79.1879 65.4109 79.1461 65.3901Z" fill="black"/>
<path d="M86.0544 69.3639L81.2492 66.5975C80.9372 66.3895 80.7922 66.0151 80.8962 65.6615C80.9584 65.4119 81.2082 65.2455 81.4572 65.2871C81.5202 65.3079 81.5612 65.3287 81.6242 65.3495L86.4287 68.1159C86.7407 68.3239 86.8864 68.6983 86.7824 69.0519C86.7202 69.3223 86.4704 69.4887 86.2002 69.4263C86.1584 69.4263 86.1167 69.4055 86.0544 69.3639Z" fill="black"/>
<path d="M75.9605 48.3135L73.922 47.1487C73.61 46.9407 73.4645 46.5663 73.5685 46.2127C73.6309 45.9423 73.8804 45.7759 74.1508 45.8383C74.2132 45.8591 74.2548 45.8799 74.3172 45.9007L76.3557 47.0655C76.6678 47.2735 76.8136 47.6479 76.7096 48.0015C76.6468 48.2719 76.3973 48.4175 76.1269 48.3759C76.0645 48.3759 76.0021 48.3343 75.9605 48.3135Z" fill="black"/>
<path d="M82.0764 54.8851L75.8571 51.3075C75.5451 51.0995 75.3995 50.7251 75.5035 50.3715C75.5659 50.1219 75.8155 49.9555 76.0651 49.9971C76.1275 50.0179 76.1691 50.0387 76.2315 50.0595L82.4506 53.6371C82.7626 53.8451 82.9084 54.2195 82.8044 54.5731C82.7421 54.8435 82.4924 55.0099 82.2221 54.9475C82.1804 54.9475 82.1181 54.9267 82.0764 54.8851Z" fill="black"/>
<path d="M76.3594 57.6719L74.321 56.5071C74.009 56.2991 73.8634 55.9247 73.9674 55.5711C74.0298 55.3007 74.2794 55.1343 74.5498 55.1967C74.6122 55.2175 74.6538 55.2383 74.7162 55.2591L76.7544 56.4239C77.0664 56.6319 77.2122 57.0063 77.1082 57.3599C77.0459 57.6303 76.7962 57.7759 76.5258 57.7343C76.4426 57.7343 76.401 57.6927 76.3594 57.6719Z" fill="black"/>
<path d="M86.7968 75.8912L81.3675 72.7504C81.0555 72.5424 80.9097 72.168 81.0137 71.8144C81.0768 71.5648 81.3257 71.3984 81.5755 71.44C81.6377 71.4608 81.6795 71.4816 81.7417 71.5024L87.171 74.6432C87.483 74.8512 87.6287 75.2256 87.5247 75.5792C87.4617 75.8288 87.2128 75.9952 86.963 75.9535C86.9008 75.9535 86.859 75.933 86.7968 75.8912Z" fill="black"/>
<path d="M74.0655 62.4573L72.7551 61.7085C72.4431 61.5005 72.2975 61.1261 72.4015 60.7725C72.4639 60.5021 72.7135 60.3565 72.9839 60.3981C73.0463 60.4189 73.0879 60.4397 73.1503 60.4605L74.4607 61.2093C74.7727 61.4173 74.9183 61.7917 74.8143 62.1453C74.7519 62.4157 74.5023 62.5821 74.2319 62.5197C74.1695 62.5197 74.1071 62.4989 74.0655 62.4573Z" fill="black"/>
<path d="M72.8262 67.821L71.2038 66.885C70.8918 66.677 70.7462 66.3026 70.8502 65.949C70.9126 65.6786 71.1622 65.5122 71.4326 65.5746C71.495 65.5954 71.5366 65.6162 71.599 65.637L73.2214 66.573C73.5334 66.781 73.679 67.1554 73.575 67.509C73.5126 67.7794 73.263 67.9458 72.9926 67.8834C72.9302 67.8834 72.8886 67.8626 72.8262 67.821Z" fill="black"/>
<path d="M79.1464 71.4658L74.8825 68.9906C74.5705 68.7826 74.4249 68.4082 74.5289 68.0546C74.5913 67.805 74.8409 67.6386 75.0905 67.6802C75.1529 67.701 75.1945 67.7218 75.2569 67.7426L79.5206 70.2178C79.8326 70.4258 79.9784 70.8002 79.8744 71.1538C79.8121 71.4034 79.5623 71.5698 79.3126 71.5282C79.2503 71.5282 79.1881 71.5074 79.1464 71.4658Z" fill="black"/>
<path d="M73.5141 71.2751L70.4357 69.5071C70.1237 69.2991 69.9781 68.9247 70.0821 68.5711C70.1445 68.3007 70.3941 68.1343 70.6645 68.1967C70.7269 68.2175 70.7685 68.2383 70.8309 68.2591L73.9094 70.0271C74.2214 70.2351 74.3669 70.6095 74.2629 70.9631C74.2005 71.2335 73.951 71.3791 73.6806 71.3375C73.6182 71.3167 73.5557 71.2959 73.5141 71.2751Z" fill="black"/>
<path d="M91.4538 78.5989L89.4779 77.4549C89.1659 77.2469 89.0201 76.8726 89.1241 76.5189C89.1863 76.2486 89.4361 76.0816 89.7063 76.1446C89.7686 76.1651 89.8103 76.1856 89.8726 76.2069L91.8486 77.3509C92.1606 77.5589 92.3063 77.9331 92.2023 78.2869C92.1401 78.5571 91.8903 78.7234 91.6201 78.6611C91.5578 78.6611 91.5161 78.6406 91.4538 78.5989Z" fill="black"/>
<path d="M83.9159 62.0416L78.4866 58.9008C78.1746 58.6928 78.0289 58.3184 78.1329 57.9648C78.1959 57.7152 78.4449 57.5488 78.6946 57.5904C78.7569 57.6112 78.7986 57.632 78.8609 57.6528L84.2901 60.7936C84.6021 61.0016 84.7479 61.376 84.6439 61.7296C84.6021 62 84.3319 62.1663 84.0821 62.104C84.0199 62.104 83.9781 62.0832 83.9159 62.0416Z" fill="black"/>
<path d="M84.5533 59.3554L75.089 53.885C74.777 53.677 74.6314 53.3026 74.7354 52.949C74.7978 52.6786 75.0474 52.5122 75.3178 52.5746C75.3802 52.5954 75.4218 52.6162 75.4842 52.637L84.9481 58.1074C85.2601 58.3154 85.4058 58.6898 85.3018 59.0434C85.2396 59.3138 84.9898 59.4802 84.7196 59.4178C84.6573 59.4178 84.5943 59.397 84.5533 59.3554Z" fill="url(#paint5_linear_1_6332)"/>
<path d="M78.9816 62.2268L73.5529 59.086C73.2409 58.878 73.0953 58.5036 73.1993 58.15C73.2617 57.8796 73.5113 57.734 73.7817 57.7756C73.8441 57.7964 73.8857 57.8172 73.9481 57.838L79.3771 60.9788C79.6891 61.1868 79.8349 61.5612 79.7309 61.9148C79.6679 62.1644 79.4189 62.3308 79.1479 62.2684C79.0651 62.2892 79.0234 62.2684 78.9816 62.2268Z" fill="url(#paint6_linear_1_6332)"/>
<path d="M88.0271 64.4111L86.0511 63.2879C85.7391 63.0799 85.5933 62.7055 85.6973 62.3519C85.7596 62.0815 86.0093 61.9151 86.2796 61.9775C86.3418 61.9983 86.3836 62.0191 86.4458 62.0399L88.4218 63.1839C88.7338 63.3919 88.8796 63.7663 88.7756 64.1199C88.7133 64.3695 88.4636 64.5359 88.1933 64.4735C88.1311 64.4735 88.0681 64.4527 88.0271 64.4111Z" fill="url(#paint7_linear_1_6332)"/>
<path d="M108.104 63.8091L96.4359 57.0699C96.1239 56.8619 95.9781 56.4875 96.0821 56.1339C96.1444 55.8635 96.3941 55.7179 96.6644 55.7595C96.7266 55.7803 96.7684 55.8011 96.8306 55.8219L108.52 62.5611C108.832 62.7691 108.978 63.1435 108.874 63.4971C108.832 63.7675 108.562 63.9338 108.312 63.8714C108.23 63.8714 108.167 63.8507 108.104 63.8091Z" fill="url(#paint8_linear_1_6332)"/>
<path d="M78.5175 68.0723L71.9865 64.3075C71.6745 64.0995 71.5289 63.7251 71.6329 63.3715C71.6953 63.1219 71.9449 62.9555 72.1945 62.9971C72.2569 63.0179 72.2985 63.0387 72.3609 63.0595L78.8925 66.8243C79.2045 67.0323 79.3495 67.4067 79.2455 67.7603C79.2045 68.0307 78.9335 68.1971 78.6845 68.1347C78.6215 68.1347 78.5592 68.1139 78.5175 68.0723Z" fill="url(#paint9_linear_1_6332)"/>
<path d="M79.4952 47.2925L74.6901 44.5261C74.3781 44.3181 74.2325 43.9437 74.3365 43.5901C74.3989 43.3197 74.6485 43.1533 74.9189 43.2157C74.9813 43.2365 75.0229 43.2573 75.0853 43.2781L79.89 46.0445C80.202 46.2525 80.3477 46.6269 80.2437 46.9805C80.1815 47.2301 79.9317 47.3965 79.682 47.3549C79.5992 47.3549 79.5362 47.3341 79.4952 47.2925Z" fill="url(#paint10_linear_1_6332)"/>
<path d="M72.5092 73.7293L66.9347 70.5261C66.6227 70.3181 66.4771 69.9437 66.5811 69.5901C66.6435 69.3197 66.8931 69.1533 67.1635 69.2157C67.2259 69.2365 67.2675 69.2573 67.3299 69.2781L72.8835 72.4813C73.1955 72.6893 73.3411 73.0637 73.2371 73.4173C73.1747 73.6669 72.9252 73.8333 72.6755 73.7917C72.6132 73.7917 72.5508 73.7709 72.5092 73.7293Z" fill="url(#paint11_linear_1_6332)"/>
<path d="M109.404 57.7946L107.033 56.4218C106.804 56.2762 106.7 56.0058 106.762 55.7354C106.804 55.5482 106.991 55.4234 107.178 55.465C107.22 55.465 107.261 55.4858 107.282 55.5066L109.653 56.8794C109.882 57.025 109.986 57.2954 109.924 57.5658C109.882 57.753 109.695 57.8778 109.508 57.8362C109.487 57.8362 109.445 57.8362 109.404 57.7946Z" fill="black"/>
<path d="M113.968 60.4167L111.597 59.0439C111.368 58.8983 111.264 58.6279 111.327 58.3575C111.368 58.1703 111.556 58.0455 111.743 58.0871C111.784 58.0871 111.826 58.1079 111.847 58.1287L114.218 59.5015C114.447 59.6471 114.551 59.9175 114.488 60.1879C114.447 60.3751 114.26 60.4999 114.072 60.4583C114.031 60.4583 113.989 60.4583 113.968 60.4167Z" fill="black"/>
<path d="M118.504 63.0388L116.132 61.666C115.904 61.5204 115.8 61.25 115.862 60.9796C115.904 60.7924 116.091 60.6676 116.278 60.7092C116.32 60.7092 116.362 60.73 116.382 60.7508L118.754 62.1236C118.982 62.2692 119.086 62.5396 119.024 62.81C118.982 62.9972 118.795 63.122 118.608 63.0804C118.587 63.0804 118.546 63.0804 118.504 63.0388Z" fill="black"/>
<path d="M120.73 64.3297L120.668 64.2881C120.439 64.1425 120.335 63.8721 120.397 63.6017C120.439 63.4145 120.626 63.2897 120.813 63.3313C120.855 63.3313 120.897 63.3521 120.938 63.3729L121.001 63.4145C121.229 63.5601 121.333 63.8305 121.271 64.1009C121.229 64.2881 121.042 64.4129 120.855 64.3713C120.813 64.3713 120.772 64.3505 120.73 64.3297Z" fill="url(#paint12_linear_1_6332)"/>
<path d="M182.752 102.493L139.488 77.5125C138.781 77.0547 138.469 76.181 138.698 75.3698L148.474 43.6082C148.723 42.8178 149.472 42.5058 150.138 42.901L193.402 67.8818C194.109 68.3394 194.421 69.213 194.192 70.0242L184.416 101.765C184.187 102.555 183.438 102.888 182.752 102.493Z" fill="#F4F4F4"/>
<path d="M193.406 67.8848L150.142 42.904C149.768 42.6752 149.289 42.6752 148.936 42.9456C149.164 42.9456 149.372 42.9872 149.56 43.112L192.824 68.072C193.53 68.5296 193.842 69.4032 193.614 70.2144L183.838 101.976C183.754 102.246 183.609 102.475 183.38 102.642C183.88 102.6 184.296 102.246 184.42 101.768L194.196 70.0064C194.425 69.1952 194.113 68.3424 193.406 67.8848Z" fill="#BADE98"/>
<path d="M147.864 65.0146L150.277 66.3875L149.486 69.029L147.073 67.6562L147.864 65.0146Z" fill="black"/>
<path d="M171.906 78.2643C171.636 78.8465 171.178 79.3043 170.575 79.554C169.556 80.074 168.37 79.9488 167.039 79.179C165.916 78.514 165.001 77.5363 164.46 76.33C163.857 75.0609 163.815 73.5425 164.335 71.7537C164.834 70.0897 165.583 69.0289 166.623 68.5713C167.663 68.1137 168.765 68.2177 169.993 68.9249C170.7 69.3201 171.324 69.8401 171.823 70.4849C172.322 71.1505 172.676 71.9201 172.842 72.7313C173.009 73.5009 173.029 74.3121 172.905 75.1025C172.78 75.7681 172.613 76.4128 172.405 77.058L166.457 73.6881C166.207 74.6657 166.269 75.4977 166.665 76.1843C166.914 76.6003 167.268 76.954 167.684 77.1825C168.141 77.4528 168.578 77.515 168.953 77.3905C169.181 77.307 169.41 77.162 169.577 76.9745L171.906 78.2643ZM170.533 74.0417C170.7 73.4385 170.658 72.7937 170.429 72.2113C170.221 71.6913 169.847 71.2753 169.369 71.0049C168.849 70.7137 168.391 70.6513 167.975 70.8593C167.559 71.0673 167.247 71.4417 166.977 72.0241L170.533 74.0417Z" fill="black"/>
<path d="M177.211 82.4865L176.65 84.3797L175.569 83.818C174.487 83.2562 173.801 82.6322 173.551 81.946C173.385 81.4465 173.385 80.8847 173.571 80.386L175.339 74.4578L174.133 73.7714L174.674 71.9826L175.881 72.669L176.671 69.9858L178.917 71.2546L178.127 73.9378L179.541 74.749L179.001 76.538L177.586 75.7266L176.067 80.8225C175.943 81.218 175.922 81.4882 175.985 81.634C176.047 81.7797 176.317 81.9877 176.775 82.258L177.003 82.3825L177.211 82.4865Z" fill="black"/>
<path d="M161.245 76.1415L158.665 74.623L156.232 62.5382L153.632 71.6694L151.24 70.255L154.901 57.4214L157.605 59.0022L159.955 70.8582L162.513 61.8934L164.905 63.3078L161.245 76.1415Z" fill="black"/>
<defs>
<linearGradient id="paint0_linear_1_6332" x1="72.9371" y1="84.448" x2="177.937" y2="84.448" gradientUnits="userSpaceOnUse">
<stop stop-color="#DA9A0E"/>
<stop offset="0.18" stop-color="#D6910E"/>
<stop offset="0.47" stop-color="#CC7A0D"/>
<stop offset="0.82" stop-color="#BB530C"/>
<stop offset="1" stop-color="#B13E0B"/>
</linearGradient>
<linearGradient id="paint1_linear_1_6332" x1="15.2417" y1="135.294" x2="153.865" y2="135.294" gradientUnits="userSpaceOnUse">
<stop stop-color="#E9A41C"/>
<stop offset="0.21" stop-color="#E4961C"/>
<stop offset="0.61" stop-color="#D9731D"/>
<stop offset="1" stop-color="#CB4A1D"/>
</linearGradient>
<linearGradient id="paint2_linear_1_6332" x1="15.2175" y1="132.906" x2="153.893" y2="132.906" gradientUnits="userSpaceOnUse">
<stop stop-color="#FFB500"/>
<stop offset="0.17" stop-color="#FFAC00"/>
<stop offset="0.45" stop-color="#FF9500"/>
<stop offset="0.79" stop-color="#FF6E00"/>
<stop offset="0.97" stop-color="#FF5700"/>
</linearGradient>
<linearGradient id="paint3_linear_1_6332" x1="71.5528" y1="84.744" x2="174.733" y2="84.744" gradientUnits="userSpaceOnUse">
<stop stop-color="#FFB500"/>
<stop offset="0.19" stop-color="#FFA900"/>
<stop offset="0.52" stop-color="#FF8A00"/>
<stop offset="0.96" stop-color="#FF5800"/>
<stop offset="0.97" stop-color="#FF5700"/>
</linearGradient>
<linearGradient id="paint4_linear_1_6332" x1="73.2681" y1="84.7676" x2="173.039" y2="84.7676" gradientUnits="userSpaceOnUse">
<stop stop-color="#3919BA"/>
<stop offset="1" stop-color="#6507F9"/>
</linearGradient>
<linearGradient id="paint5_linear_1_6332" x1="74.6981" y1="56.0076" x2="85.3163" y2="56.0076" gradientUnits="userSpaceOnUse">
<stop stop-color="#FFB500"/>
<stop offset="0.17" stop-color="#FFAC00"/>
<stop offset="0.45" stop-color="#FF9500"/>
<stop offset="0.79" stop-color="#FF6E00"/>
<stop offset="0.97" stop-color="#FF5700"/>
</linearGradient>
<linearGradient id="paint6_linear_1_6332" x1="73.1491" y1="60.0433" x2="79.7339" y2="60.0433" gradientUnits="userSpaceOnUse">
<stop stop-color="#FFB500"/>
<stop offset="0.17" stop-color="#FFAC00"/>
<stop offset="0.45" stop-color="#FF9500"/>
<stop offset="0.79" stop-color="#FF6E00"/>
<stop offset="0.97" stop-color="#FF5700"/>
</linearGradient>
<linearGradient id="paint7_linear_1_6332" x1="85.6662" y1="63.2321" x2="88.7923" y2="63.2321" gradientUnits="userSpaceOnUse">
<stop stop-color="#FFB500"/>
<stop offset="0.17" stop-color="#FFAC00"/>
<stop offset="0.45" stop-color="#FF9500"/>
<stop offset="0.79" stop-color="#FF6E00"/>
<stop offset="0.97" stop-color="#FF5700"/>
</linearGradient>
<linearGradient id="paint8_linear_1_6332" x1="96.0441" y1="59.8275" x2="108.882" y2="59.8275" gradientUnits="userSpaceOnUse">
<stop stop-color="#FFB500"/>
<stop offset="0.17" stop-color="#FFAC00"/>
<stop offset="0.45" stop-color="#FF9500"/>
<stop offset="0.79" stop-color="#FF6E00"/>
<stop offset="0.97" stop-color="#FF5700"/>
</linearGradient>
<linearGradient id="paint9_linear_1_6332" x1="71.5925" y1="65.5675" x2="79.2736" y2="65.5675" gradientUnits="userSpaceOnUse">
<stop stop-color="#FFB500"/>
<stop offset="0.17" stop-color="#FFAC00"/>
<stop offset="0.45" stop-color="#FF9500"/>
<stop offset="0.79" stop-color="#FF6E00"/>
<stop offset="0.97" stop-color="#FF5700"/>
</linearGradient>
<linearGradient id="paint10_linear_1_6332" x1="74.3054" y1="45.2954" x2="80.2581" y2="45.2954" gradientUnits="userSpaceOnUse">
<stop stop-color="#FFB500"/>
<stop offset="0.17" stop-color="#FFAC00"/>
<stop offset="0.45" stop-color="#FF9500"/>
<stop offset="0.79" stop-color="#FF6E00"/>
<stop offset="0.97" stop-color="#FF5700"/>
</linearGradient>
<linearGradient id="paint11_linear_1_6332" x1="66.5542" y1="71.509" x2="73.2655" y2="71.509" gradientUnits="userSpaceOnUse">
<stop stop-color="#FFB500"/>
<stop offset="0.17" stop-color="#FFAC00"/>
<stop offset="0.45" stop-color="#FF9500"/>
<stop offset="0.79" stop-color="#FF6E00"/>
<stop offset="0.97" stop-color="#FF5700"/>
</linearGradient>
<linearGradient id="paint12_linear_1_6332" x1="120.372" y1="63.8554" x2="121.29" y2="63.8554" gradientUnits="userSpaceOnUse">
<stop stop-color="#FFB500"/>
<stop offset="0.17" stop-color="#FFAC00"/>
<stop offset="0.45" stop-color="#FF9500"/>
<stop offset="0.79" stop-color="#FF6E00"/>
<stop offset="0.97" stop-color="#FF5700"/>
</linearGradient>
</defs>
</svg>
