<svg width="25" height="26" viewBox="0 0 25 26" fill="none" xmlns="http://www.w3.org/2000/svg">
<g clip-path="url(#clip0_5_1137)">
<path fill-rule="evenodd" clip-rule="evenodd" d="M24.58 13.2C24.58 20.0759 19.2074 25.65 12.58 25.65C5.9526 25.65 0.580017 20.0759 0.580017 13.2C0.580017 6.32405 5.9526 0.75 12.58 0.75C19.2074 0.75 24.58 6.32405 24.58 13.2ZM12.9546 9.74022C11.7903 10.2532 9.46336 11.315 5.9737 12.9256C5.40704 13.1643 5.11019 13.3978 5.08317 13.6261C5.0375 14.012 5.49371 14.164 6.11494 14.3709C6.19944 14.3991 6.28699 14.4282 6.37675 14.4591C6.98795 14.6696 7.81011 14.9158 8.23752 14.9256C8.62523 14.9345 9.05794 14.7651 9.53568 14.4176C12.7962 12.0862 14.4792 10.9078 14.5849 10.8824C14.6594 10.8644 14.7628 10.8419 14.8327 10.9078C14.9027 10.9737 14.8959 11.0985 14.8884 11.132C14.8433 11.3361 13.0525 13.0997 12.1258 14.0123C11.8369 14.2968 11.6319 14.4987 11.59 14.5448C11.4962 14.648 11.4006 14.7457 11.3086 14.8395C10.7408 15.4194 10.315 15.8542 11.3322 16.5643C11.821 16.9055 12.2122 17.1877 12.6024 17.4692C13.0286 17.7766 13.4537 18.0833 14.0036 18.4652C14.1438 18.5625 14.2776 18.6635 14.4079 18.762C14.9039 19.1365 15.3495 19.473 15.8999 19.4193C16.2198 19.3882 16.5502 19.0695 16.718 18.1193C17.1146 15.8736 17.8941 11.0078 18.0742 9.00269C18.09 8.82702 18.0701 8.60219 18.0542 8.5035C18.0383 8.40481 18.0049 8.26419 17.8838 8.1601C17.7404 8.03682 17.519 8.01082 17.42 8.01258C16.9697 8.02107 16.279 8.27551 12.9546 9.74022Z" fill="#BA8D5B"/>
</g>
<defs>
<clipPath id="clip0_5_1137">
<rect width="24" height="26" fill="white" transform="translate(0.580017)"/>
</clipPath>
</defs>
</svg>
