<svg width="25" height="24" viewBox="0 0 25 24" fill="none" xmlns="http://www.w3.org/2000/svg">
<g clip-path="url(#clip0_5_1143)">
<path fill-rule="evenodd" clip-rule="evenodd" d="M12.58 0C5.9526 0 0.580017 5.37258 0.580017 12C0.580017 18.6274 5.9526 24 12.58 24C19.2074 24 24.58 18.6274 24.58 12C24.58 5.37258 19.2074 0 12.58 0ZM17.5808 7.87466C18.1316 8.0258 18.5653 8.47111 18.7125 9.03661C18.98 10.0615 18.98 12.2 18.98 12.2C18.98 12.2 18.98 14.3384 18.7125 15.3634C18.5653 15.9289 18.1316 16.3742 17.5808 16.5254C16.5827 16.8 12.58 16.8 12.58 16.8C12.58 16.8 8.57733 16.8 7.57915 16.5254C7.02838 16.3742 6.59464 15.9289 6.44744 15.3634C6.18002 14.3384 6.18002 12.2 6.18002 12.2C6.18002 12.2 6.18002 10.0615 6.44744 9.03661C6.59464 8.47111 7.02838 8.0258 7.57915 7.87466C8.57733 7.6 12.58 7.6 12.58 7.6C12.58 7.6 16.5827 7.6 17.5808 7.87466Z" fill="#BA8D5B"/>
<path d="M11.38 14.4004V10.4004L14.58 12.4005L11.38 14.4004Z" fill="#BA8D5B"/>
</g>
<defs>
<clipPath id="clip0_5_1143">
<rect width="24" height="24" fill="white" transform="translate(0.580017)"/>
</clipPath>
</defs>
</svg>
